<svg width="30" height="30" viewBox="0 0 30 30" fill="none" xmlns="http://www.w3.org/2000/svg">
<path d="M11.247 26.865C9.57599 26.865 7.90799 26.877 6.23699 26.862C4.87799 26.85 3.84899 26.208 3.10499 25.101C2.72999 24.546 2.58599 23.907 2.58599 23.244C2.58299 20.019 2.58599 16.797 2.58599 13.572C2.58599 12.054 3.24299 10.914 4.60499 10.227C4.98899 10.032 5.44499 9.912 5.87699 9.882C6.86099 9.819 7.84799 9.825 8.83499 9.822C10.686 9.816 12.537 9.822 14.385 9.825C15.096 9.825 15.228 9.96 15.225 10.674C15.225 10.767 15.222 10.863 15.207 10.956C15.147 11.352 15.054 11.436 14.649 11.436C13.056 11.436 11.46 11.436 9.86699 11.436C8.65199 11.436 7.43699 11.436 6.22199 11.436C5.12399 11.436 4.26299 12.225 4.24799 13.32C4.21799 15.615 4.22699 17.913 4.22399 20.208C4.22399 21.258 4.24499 22.305 4.23899 23.355C4.23599 24.309 5.11799 25.239 6.20399 25.239C9.57299 25.239 12.942 25.245 16.311 25.236C17.463 25.233 18.276 24.396 18.279 23.256C18.282 22.056 18.279 20.856 18.279 19.653C18.279 19.209 18.432 19.062 18.879 19.056C19.059 19.056 19.239 19.05 19.419 19.056C19.764 19.071 19.977 19.269 19.974 19.608C19.959 20.931 19.98 22.254 19.899 23.574C19.782 25.413 18.207 26.832 16.317 26.856C14.628 26.877 12.939 26.859 11.25 26.859L11.247 26.865Z" fill="#262626"/>
<path d="M19.419 12.627C18.87 13.188 18.327 13.755 17.769 14.304C15.573 16.47 13.371 18.633 11.169 20.796C10.656 21.3 10.143 21.804 9.627 22.305C9.525 22.404 9.417 22.5 9.294 22.569C8.964 22.755 8.691 22.695 8.436 22.401C8.205 22.131 8.178 21.909 8.445 21.618C8.949 21.069 9.483 20.544 10.014 20.019C11.826 18.219 13.638 16.419 15.459 14.625C16.356 13.743 17.271 12.876 18.174 12C18.273 11.904 18.357 11.79 18.477 11.652C18.006 11.499 17.577 11.361 17.148 11.223C17.04 11.187 16.932 11.157 16.827 11.109C16.242 10.845 16.176 10.293 16.695 9.918C17.307 9.474 17.934 9.048 18.543 8.598C18.636 8.529 18.711 8.376 18.711 8.262C18.711 7.545 18.669 6.828 18.675 6.111C18.681 5.439 19.254 5.133 19.815 5.508C20.412 5.907 20.988 6.342 21.561 6.777C21.738 6.912 21.873 6.948 22.095 6.864C22.779 6.609 23.472 6.384 24.165 6.168C24.699 6 25.146 6.375 25.032 6.927C24.936 7.395 24.747 7.842 24.6 8.298C24.501 8.601 24.384 8.901 24.3 9.21C24.273 9.309 24.3 9.456 24.36 9.54C24.789 10.128 25.233 10.704 25.671 11.286C25.842 11.511 25.974 11.739 25.809 12.036C25.65 12.318 25.419 12.423 25.107 12.417C24.396 12.408 23.685 12.417 22.974 12.405C22.755 12.402 22.62 12.459 22.491 12.654C22.101 13.233 21.672 13.788 21.267 14.358C21.06 14.649 20.781 14.742 20.448 14.679C20.148 14.622 20.025 14.376 19.944 14.118C19.791 13.635 19.659 13.146 19.518 12.66C19.485 12.651 19.449 12.639 19.416 12.63L19.419 12.627ZM20.085 7.365C20.085 7.632 20.085 7.83 20.085 8.028C20.085 8.838 19.741 9.464 19.053 9.906C18.9 10.005 18.759 10.125 18.57 10.269C19.08 10.416 19.521 10.545 19.965 10.671C20.199 10.737 20.373 10.872 20.445 11.109C20.574 11.514 20.694 11.919 20.82 12.324C20.838 12.387 20.871 12.444 20.913 12.54C21.087 12.285 21.252 12.087 21.366 11.865C21.705 11.211 22.224 10.956 22.953 11.058C23.214 11.094 23.487 11.064 23.823 11.064C23.559 10.719 23.361 10.434 23.136 10.167C22.833 9.807 22.749 9.432 22.932 8.988C23.076 8.637 23.187 8.268 23.328 7.857C22.947 7.989 22.614 8.07 22.317 8.217C21.783 8.481 21.336 8.355 20.913 7.989C20.799 7.89 20.676 7.8 20.556 7.71C20.415 7.605 20.271 7.503 20.085 7.365Z" fill="#262626"/>
<path d="M14.232 4.485C14.448 4.839 14.589 5.196 14.838 5.445C15.078 5.685 15.432 5.811 15.789 6.018C15.411 6.231 15.057 6.351 14.811 6.588C14.562 6.828 14.421 7.179 14.214 7.512C14.145 7.404 14.058 7.314 14.019 7.206C13.845 6.693 13.485 6.378 12.99 6.189C12.9 6.156 12.831 6.072 12.753 6.012C12.828 5.946 12.888 5.85 12.975 5.82C13.509 5.625 13.854 5.253 14.052 4.728C14.082 4.65 14.154 4.587 14.235 4.485H14.232Z" fill="#262626"/>
<path d="M27.237 16.383C26.535 15.96 25.833 16.047 25.134 16.404C25.119 16.368 25.104 16.332 25.089 16.293C25.191 15.957 25.371 15.621 25.371 15.285C25.371 14.946 25.191 14.61 25.065 14.187C25.485 14.31 25.833 14.493 26.175 14.49C26.523 14.49 26.868 14.304 27.291 14.178C27.171 14.604 27.006 14.94 27.003 15.279C27.003 15.612 27.162 15.948 27.249 16.281C27.243 16.314 27.237 16.347 27.231 16.38L27.237 16.383Z" fill="#262626"/>
<path d="M22.335 5.277C22.233 5.124 22.128 5.004 22.065 4.869C21.918 4.56 21.681 4.371 21.369 4.245C21.285 4.212 21.225 4.116 21.153 4.047C21.222 3.987 21.279 3.897 21.357 3.876C21.762 3.762 21.963 3.453 22.143 3.114C22.185 3.033 22.272 2.958 22.359 2.922C22.386 2.91 22.5 3.015 22.524 3.084C22.662 3.501 22.938 3.765 23.355 3.903C23.424 3.927 23.493 4.008 23.511 4.077C23.523 4.116 23.439 4.215 23.382 4.233C22.905 4.365 22.593 4.653 22.449 5.127C22.437 5.166 22.398 5.199 22.338 5.277H22.335Z" fill="#262626"/>
<path d="M21.69 16.929C21.756 16.95 21.771 16.95 21.774 16.956C22.014 17.433 22.326 17.841 22.827 18.078C22.854 18.09 22.818 18.333 22.794 18.336C22.209 18.405 21.999 18.846 21.807 19.305C21.798 19.329 21.771 19.347 21.723 19.395C21.567 19.128 21.456 18.834 21.258 18.627C21.063 18.423 20.775 18.306 20.526 18.108C21.153 17.922 21.465 17.451 21.69 16.929Z" fill="#262626"/>
<path d="M27.543 8.7C27.342 8.907 27.132 9.123 26.85 9.414C26.835 9.375 26.799 9.309 26.778 9.237C26.709 9 26.556 8.856 26.319 8.778C26.16 8.724 26.166 8.607 26.304 8.538C26.514 8.43 26.7 8.322 26.742 8.061C26.748 8.031 26.898 7.983 26.916 8.001C27.144 8.241 27.357 8.493 27.54 8.7H27.543Z" fill="#262626"/>
</svg>
