<svg width="69" height="70" viewBox="0 0 69 70" fill="none" xmlns="http://www.w3.org/2000/svg">
<g clip-path="url(#clip0_1_572)">
<path d="M42.834 59.9903V54.8908C42.8341 54.7447 42.8059 54.6 42.7512 54.4651C42.6964 54.3301 42.6161 54.2075 42.5149 54.1044C42.4142 54.0009 42.2945 53.9188 42.1626 53.863C42.0307 53.8071 41.8893 53.7785 41.7465 53.7789H26.8883C26.7455 53.7788 26.604 53.8075 26.472 53.8633C26.34 53.9192 26.2201 54.0011 26.1191 54.1044C26.018 54.2076 25.938 54.3303 25.8834 54.4652C25.8288 54.6001 25.8007 54.7448 25.8009 54.8908V59.9903L19.971 63.2824C19.9117 63.3167 19.8624 63.3664 19.8282 63.4266C19.7934 63.4864 19.7749 63.5547 19.7748 63.6244V64.3468C19.7748 64.4469 19.8118 64.547 19.8868 64.6226C19.9607 64.6996 20.058 64.737 20.1562 64.737H48.4786C48.5765 64.737 48.6738 64.6996 48.7477 64.6226C48.8231 64.547 48.8597 64.4469 48.8597 64.3468V63.6244C48.8597 63.5568 48.8426 63.4875 48.8063 63.4266C48.772 63.3661 48.7223 63.3163 48.6625 63.2824L42.834 59.9903ZM67.8014 6.03536C67.5622 5.78979 67.2779 5.59504 66.9647 5.46234C66.6515 5.32965 66.3157 5.26163 65.9767 5.26221H2.6588C1.99795 5.26221 1.33744 5.51946 0.83376 6.03536C0.593359 6.27977 0.402687 6.57042 0.272749 6.89055C0.14281 7.21067 0.076177 7.55393 0.0766937 7.90051V49.7962C0.0766937 50.4717 0.328022 51.1472 0.83376 51.6628C1.07303 51.9083 1.35748 52.103 1.6707 52.2357C1.98393 52.3684 2.31974 52.4365 2.6588 52.4359H65.9767C66.3157 52.4363 66.6515 52.3683 66.9646 52.2356C67.2778 52.1029 67.5621 51.9082 67.8014 51.6628C68.0418 51.418 68.2325 51.1271 68.3624 50.8068C68.4923 50.4865 68.559 50.143 68.5585 49.7962V7.90051C68.5589 7.55394 68.4923 7.2107 68.3623 6.89059C68.2324 6.57048 68.0418 6.27982 67.8014 6.03536ZM34.3176 51.3177C33.6872 51.3177 33.176 50.7958 33.176 50.1515C33.176 49.5071 33.6872 48.9839 34.3176 48.9839C34.6204 48.9839 34.9107 49.1068 35.1248 49.3256C35.3389 49.5445 35.4592 49.8413 35.4592 50.1508C35.4592 50.4602 35.3389 50.757 35.1248 50.9759C34.9107 51.1947 34.6204 51.3177 34.3176 51.3177ZM64.0928 47.8709H4.54273V9.82691H64.0928V47.8709Z" fill="#222831"/>
<path d="M14.1182 44.29C14.0476 44.29 13.9777 44.3041 13.9125 44.3317C13.8473 44.3592 13.788 44.3997 13.7381 44.4507C13.6882 44.5017 13.6486 44.5623 13.6217 44.6289C13.5947 44.6956 13.5809 44.7671 13.581 44.8392V45.2557H19.3324V44.8392C19.332 44.6938 19.2754 44.5544 19.1749 44.4515C19.0744 44.3487 18.9381 44.2906 18.7959 44.29H14.1182ZM21.1393 37.5018C21.0688 37.5017 20.999 37.5159 20.9339 37.5435C20.8688 37.5711 20.8097 37.6116 20.7599 37.6626C20.7102 37.7137 20.6707 37.7742 20.644 37.8409C20.6172 37.9075 20.6035 37.9789 20.6038 38.0509V45.2557H26.3535V38.0509C26.3537 37.9788 26.3399 37.9073 26.313 37.8407C26.2861 37.774 26.2466 37.7134 26.1967 37.6623C26.1468 37.6113 26.0875 37.5709 26.0223 37.5433C25.9571 37.5158 25.8872 37.5017 25.8166 37.5018H21.1393ZM28.1618 34.7109C28.0241 34.7109 27.8872 34.7634 27.7817 34.8705C27.7318 34.9216 27.6923 34.9824 27.6654 35.0491C27.6385 35.1159 27.6247 35.1875 27.6249 35.2597V45.2564H33.376V35.2597C33.376 35.119 33.3236 34.9786 33.2188 34.8705C33.169 34.8196 33.1099 34.7792 33.0448 34.7518C32.9796 34.7244 32.9098 34.7105 32.8394 34.7109H28.1618ZM35.1846 35.8659C35.1141 35.8653 35.0442 35.8791 34.979 35.9066C34.9139 35.9341 34.8548 35.9746 34.8052 36.0258C34.755 36.0768 34.7151 36.1374 34.688 36.2042C34.6609 36.2711 34.6471 36.3427 34.6473 36.415V45.256H40.3988V36.415C40.3988 36.2733 40.3474 36.1336 40.2402 36.0258C40.1909 35.9747 40.132 35.9342 40.0671 35.9067C40.0022 35.8792 39.9325 35.8653 39.8622 35.8659H35.1846ZM42.2064 31.3799C42.0638 31.3798 41.927 31.4376 41.826 31.5405C41.725 31.6434 41.6681 31.783 41.6677 31.9287V45.2564H47.4212V31.9284C47.4212 31.788 47.3678 31.648 47.262 31.5399C47.2123 31.489 47.1533 31.4486 47.0883 31.4211C47.0233 31.3936 46.9537 31.3795 46.8833 31.3796L42.2064 31.3799ZM49.2281 25.7806C49.1576 25.7805 49.0878 25.7946 49.0226 25.8221C48.9575 25.8496 48.8983 25.89 48.8484 25.941C48.7986 25.9919 48.7591 26.0524 48.7321 26.119C48.7052 26.1856 48.6914 26.257 48.6916 26.3291V45.2557H54.4423V26.3294C54.4423 26.1894 54.391 26.048 54.2848 25.9416C54.2352 25.8906 54.1761 25.8501 54.111 25.8225C54.046 25.795 53.9762 25.7809 53.9058 25.781H49.2281V25.7806Z" fill="#222831"/>
<path d="M58.7611 15.3031C58.7976 15.2399 58.8146 15.167 58.8101 15.0938C58.8055 15.0205 58.7795 14.9504 58.7355 14.8925C58.6911 14.8349 58.631 14.7922 58.5627 14.7698C58.4944 14.7474 58.4212 14.7464 58.3523 14.7669L52.6067 16.4878C52.5507 16.5046 52.4995 16.535 52.4576 16.5766C52.4158 16.6182 52.3845 16.6696 52.3665 16.7264C52.3485 16.7831 52.3443 16.8435 52.3544 16.9023C52.3645 16.961 52.3884 17.0164 52.4242 17.0636L53.1213 17.9774L35.7187 31.8532L26.0744 27.6759L9.99115 43.2852C9.89185 43.3829 9.82816 43.5169 9.82371 43.6692C9.822 43.8204 9.87644 43.9597 9.97231 44.0626L10.7123 44.8574C10.8071 44.9589 10.9396 45.0254 11.0872 45.0293C11.2355 45.0321 11.3717 44.9747 11.471 44.8767L26.5319 30.2589L36.044 34.3774L54.4423 19.7075L55.1395 20.6199C55.1754 20.6669 55.2219 20.7041 55.2751 20.7284C55.3284 20.7528 55.3866 20.7634 55.4447 20.7594C55.5029 20.7555 55.5592 20.737 55.6088 20.7057C55.6583 20.6743 55.6997 20.6311 55.7291 20.5797L58.7611 15.3031Z" fill="#222831"/>
</g>
<defs>
<clipPath id="clip0_1_572">
<rect width="68.4818" height="70" fill="white" transform="translate(0.0766907)"/>
</clipPath>
</defs>
</svg>
