<svg width="75" height="75" viewBox="0 0 75 75" fill="none" xmlns="http://www.w3.org/2000/svg">
<path fill-rule="evenodd" clip-rule="evenodd" d="M73.9976 0.66662L73.9967 0.66978C74.7991 17.8097 69.6593 31.1768 58.7312 40.4159C59.0716 41.8339 60.1955 47.8628 55.9406 52.1635C54.2399 53.8829 52.6687 55.4109 51.2704 56.7052C50.7808 57.1637 50.1257 57.4201 49.444 57.42C49.2818 57.4199 49.1199 57.4058 48.9604 57.3778C48.1219 57.2351 47.4068 56.7088 47.0416 55.9655L43.57 49.0024C40.6169 50.09 37.5498 50.8627 34.4231 51.3067L34.1716 51.3345L21.1348 38.7686L21.1625 38.525C21.6159 35.4892 22.4116 32.5105 23.5356 29.6421C22.6141 29.2603 20.6585 28.3562 16.3131 26.3474L16.3059 26.3441C15.5386 25.9899 14.9934 25.3018 14.8395 24.4936C14.6856 23.6854 14.9417 22.8548 15.5283 22.2598C16.8552 20.9129 18.4321 19.39 20.2149 17.733C24.6539 13.6089 30.8948 14.6779 32.3631 15.0028C41.9008 4.40569 55.7321 -0.600824 73.4945 0.137341C73.5177 0.141177 73.5406 0.146609 73.563 0.153597C73.7424 0.174082 73.8947 0.290392 73.9567 0.45439C73.9666 0.483988 73.9736 0.5144 73.9777 0.54524C73.9856 0.570523 73.9916 0.59633 73.9956 0.622455L73.9965 0.660046L73.9976 0.66662ZM57.6792 40.0151C57.7139 39.9463 57.7645 39.886 57.8269 39.839C68.5602 30.885 73.6443 17.8638 72.9586 1.14181C55.6479 0.531056 42.1954 5.47761 32.9615 15.8758L32.9431 15.8953L32.9421 15.8965L32.9396 15.8983C32.8924 15.9499 32.8349 15.9917 32.7704 16.021C32.7537 16.0274 32.7367 16.0329 32.7194 16.0375C32.6708 16.0554 32.6196 16.0659 32.5677 16.0689C32.5636 16.0691 32.5597 16.0703 32.5557 16.0715C32.5515 16.0728 32.5472 16.0741 32.5427 16.0741C32.5205 16.0717 32.4984 16.068 32.4767 16.0629C32.4528 16.063 32.4289 16.0615 32.4052 16.0582C32.3369 16.0399 25.4559 14.2723 20.9438 18.4652C19.1718 20.1118 17.6062 21.6243 16.29 22.9603C15.9352 23.3195 15.7802 23.8213 15.8732 24.3097C15.9662 24.7981 16.2958 25.2137 16.7597 25.4273C16.7597 25.4273 24.305 28.9158 24.4046 28.9615L24.8414 29.1609L24.6731 29.5989C23.5483 32.4428 22.7329 35.392 22.2399 38.399L34.5509 50.2654C37.6608 49.7804 40.7101 48.984 43.6495 47.8892C44.1279 47.781 44.1285 47.782 47.9397 55.4268L47.9886 55.5249C48.2112 55.9726 48.6424 56.2899 49.1481 56.3783C49.6538 56.4667 50.1727 56.3154 50.5434 55.9714C51.9304 54.6875 53.4909 53.17 55.1808 51.461C59.5076 47.088 57.6581 40.4444 57.6391 40.3774C57.6302 40.3357 57.6269 40.2931 57.6295 40.2507C57.6294 40.2434 57.6284 40.2361 57.6274 40.229C57.6261 40.2193 57.6248 40.2098 57.6257 40.2001C57.6313 40.1443 57.6466 40.0899 57.671 40.0391C57.6746 40.0313 57.6753 40.0228 57.6792 40.0151Z" fill="#222831"/>
<path fill-rule="evenodd" clip-rule="evenodd" d="M41.3909 24.0407C41.391 19.6656 45.061 16.119 49.5881 16.1191C54.1129 16.1245 57.7796 19.6682 57.7848 24.0412C57.7847 28.4162 54.1147 31.9628 49.5876 31.9627C45.0605 31.9626 41.3907 28.4157 41.3909 24.0407ZM42.9861 26.6838C44.0922 29.2643 46.6979 30.9468 49.5881 30.9467C53.5325 30.9423 56.729 27.8532 56.7335 24.0412C56.7336 21.248 54.9927 18.7298 52.3225 17.6608C49.6523 16.5919 46.5788 17.1827 44.5351 19.1578C42.4914 21.1329 41.8801 24.1032 42.9861 26.6838Z" fill="#222831"/>
<path d="M26.0159 53.68C25.7667 53.5359 25.4438 53.6143 25.2947 53.8551C25.1456 54.096 25.2267 54.408 25.4759 54.5521C27.3996 55.7542 28.5576 57.8201 28.5487 60.0339C28.5047 62.2738 27.5667 64.4107 25.9307 65.9979C24.2649 67.597 22.1962 68.7483 19.929 69.338C18.9275 69.6193 17.8746 69.8207 16.8572 70.0157L16.0082 70.1804C12.2665 70.9219 8.59505 71.9628 5.03184 73.2924C4.89375 73.344 4.75413 73.4025 4.61553 73.467C4.15765 73.6833 3.62046 73.6755 3.16947 73.4461C2.78062 73.2525 2.51462 72.887 2.45749 72.4678C2.17924 70.4558 2.25735 68.4127 2.68849 66.426C3.37195 63.4307 4.58958 60.5733 6.28687 57.9816C7.08252 56.722 7.11331 55.6688 6.37207 55.0929C6.02357 54.8567 5.6117 54.7231 5.1863 54.7084L1.78453 54.3324C1.68972 54.3244 1.59567 54.3095 1.50323 54.2877C1.50015 54.2787 1.47551 54.1919 1.591 53.8997C2.72827 50.5962 5.11064 47.8275 8.26418 46.1444C11.5643 44.5842 15.6981 45.1403 17.8771 47.4397C18.0734 47.6461 18.4056 47.6598 18.6194 47.4704C18.8332 47.281 18.8479 46.96 18.6522 46.7531C16.1298 44.0921 11.5674 43.4516 7.80215 45.2316C4.40839 47.027 1.83972 49.9929 0.608547 53.5376C0.373307 53.9856 0.407688 54.5216 0.698379 54.9381C0.955197 55.187 1.30094 55.3313 1.66451 55.3414L5.0668 55.7175C5.29277 55.7222 5.51425 55.7793 5.71255 55.8842C6.04265 56.1406 5.76235 56.8624 5.38967 57.4518C3.62849 60.1447 2.36571 63.1133 1.65783 66.2246C1.20348 68.324 1.12188 70.4829 1.41652 72.6087C1.52157 73.3484 1.98924 73.9938 2.67261 74.3421C3.05281 74.5375 3.47701 74.6394 3.90767 74.6387C4.31053 74.6388 4.70825 74.5513 5.07136 74.3827C5.18429 74.3301 5.29723 74.2826 5.41016 74.2403C8.91892 72.9311 12.5342 71.906 16.2187 71.1755L17.0615 71.0123C18.1015 70.8133 19.1769 70.607 20.2226 70.3133C22.6667 69.674 24.8957 68.4289 26.6889 66.7013C28.5142 64.9226 29.5573 62.5307 29.5999 60.0259C29.6022 57.4586 28.2514 55.0669 26.0159 53.68Z" fill="#222831"/>
</svg>
