<svg width="81" height="77" viewBox="0 0 81 77" fill="none" xmlns="http://www.w3.org/2000/svg">
<path d="M9.36913 26.9955C9.41406 27.0073 9.46042 27.0132 9.50697 27.0131C9.74801 27.0129 9.95881 26.8562 10.0209 26.6311L16.3466 3.72597C16.8822 1.80629 18.922 0.665501 20.9111 1.17321L40.4948 6.22486C42.4842 6.73825 43.6665 8.71284 43.1357 10.6356L41.7702 15.5806C41.7338 15.7125 41.753 15.853 41.8238 15.9711C41.8945 16.0892 42.0109 16.1754 42.1474 16.2105C42.3783 16.2698 42.6214 16.1697 42.737 15.9677C44.7853 14.4423 47.6154 14.36 49.7549 15.7637C51.8943 17.1673 52.8597 19.7397 52.1487 22.1424C51.4376 24.5451 49.2109 26.2353 46.627 26.3335C44.0912 26.4263 41.7688 24.9683 40.8259 22.6914C40.7797 22.515 40.6393 22.3761 40.4579 22.3274C40.1741 22.2566 39.884 22.4188 39.8061 22.6919L36.8099 33.5407C36.7735 33.6725 36.7927 33.813 36.8635 33.9311C36.9342 34.0493 37.0506 34.1354 37.1871 34.1706C37.232 34.1823 37.2783 34.1882 37.3249 34.1882C37.5659 34.1879 37.7767 34.0312 37.8388 33.8061L40.4795 24.2445C41.7755 26.1858 44.0003 27.3612 46.3909 27.3675C46.4834 27.3675 46.576 27.3654 46.6686 27.362C49.5643 27.2641 52.1038 25.4653 53.0721 22.8261C54.0403 20.1869 53.2406 17.2438 51.0554 15.405C48.8702 13.5661 45.7439 13.2053 43.1721 14.4951L44.1645 10.901C44.4925 9.71396 44.3191 8.44959 43.6824 7.38613C43.0456 6.32268 41.9978 5.54727 40.7694 5.23054L21.1857 0.178865C18.6281 -0.477843 16.003 0.990203 15.3177 3.4605L8.99199 26.3656C8.95552 26.4975 8.97477 26.638 9.04551 26.7561C9.11624 26.8743 9.23266 26.9604 9.36913 26.9955Z" fill="#222831"/>
<path d="M76.7249 14.1093L52.9439 8.29307C52.7593 8.24756 52.5635 8.30088 52.4305 8.43288C52.2976 8.56488 52.2478 8.75546 52.2998 8.93265C52.3519 9.10985 52.4979 9.24666 52.6828 9.29143L76.4638 15.1077C77.4224 15.3422 78.2453 15.9352 78.7515 16.7561C79.2577 17.5771 79.4057 18.5587 79.1629 19.4851L74.1901 38.4752C73.6844 40.4042 71.6567 41.5721 69.6604 41.0842L64.5265 39.8285C64.2413 39.7593 63.9519 39.9261 63.8794 40.2015C63.823 40.4257 63.9298 40.6584 64.1396 40.7685C65.735 42.7212 65.8596 45.4411 64.4491 47.5225C63.0386 49.6039 60.4089 50.5804 57.9191 49.9475C55.4294 49.3146 53.6373 47.214 53.469 44.7312C53.3007 42.2485 54.794 39.9399 57.1771 38.9986C57.1951 38.9885 57.2124 38.9773 57.2289 38.9652C57.3743 38.9097 57.4851 38.7926 57.5292 38.6477C57.601 38.372 57.4283 38.0923 57.1433 38.0223L45.8796 35.2675C45.6947 35.2215 45.4985 35.2746 45.3652 35.4067C45.232 35.5388 45.182 35.7297 45.2343 35.9072C45.2866 36.0846 45.4332 36.2215 45.6185 36.2659L55.5452 38.6937C52.9573 40.3545 51.8 43.4571 52.6962 46.3316C53.5924 49.2062 56.3307 51.1744 59.4372 51.177C59.5631 51.177 59.6895 51.1735 59.8159 51.1675C62.2245 51.0542 64.4049 49.7556 65.5924 47.7272C66.7799 45.6988 66.8087 43.2238 65.6686 41.1701L69.3994 42.0826C70.6321 42.3843 71.9383 42.2003 73.0305 41.5711C74.1227 40.9418 74.9115 39.919 75.2232 38.7276L80.196 19.7375C80.8424 17.2575 79.2896 14.7397 76.7249 14.1093Z" fill="#222831"/>
<path d="M72.2488 49.6564C72.112 49.6221 71.9666 49.6421 71.845 49.7118C71.7234 49.7816 71.6357 49.8954 71.6012 50.0279L65.5476 73.0019C65.3036 73.9281 64.689 74.7226 63.8388 75.2108C62.9886 75.6989 61.9726 75.8407 61.0143 75.6049L41.3718 70.7709C39.3777 70.2777 38.1729 68.3177 38.6784 66.3894L39.9851 61.4297C40.0201 61.2974 39.9992 61.1572 39.9271 61.0398C39.855 60.9224 39.7376 60.8375 39.6007 60.8038C39.3687 60.7467 39.1264 60.8498 39.0131 61.0536C37.2558 62.396 34.8698 62.6777 32.8297 61.7836C30.7896 60.8896 29.4368 58.9695 29.3238 56.8074C29.1757 53.992 31.1474 51.4829 33.9934 50.865C36.8394 50.2471 39.7321 51.7002 40.8443 54.3062C40.9031 54.5293 41.1113 54.6852 41.3495 54.6844C41.5927 54.6842 41.8049 54.5247 41.865 54.2969L44.7321 43.4159C44.8048 43.1405 44.6327 42.8603 44.3477 42.79C44.0627 42.7198 43.7728 42.8861 43.7001 43.1615L41.1728 52.7526C39.6642 50.5537 36.9772 49.3945 34.276 49.7773C31.5749 50.1601 29.3454 52.016 28.5536 54.541C27.7617 57.066 28.55 59.8058 30.5768 61.5734C31.8687 62.7079 33.5524 63.3352 35.2979 63.3324C35.4196 63.3324 35.5418 63.3294 35.6646 63.3234C36.6901 63.27 37.6909 62.9994 38.5961 62.5306L37.6464 66.135C37.3324 67.3258 37.5208 68.5883 38.1701 69.6448C38.8195 70.7012 39.8765 71.4651 41.1087 71.7683L60.7511 76.6023C61.1404 76.6984 61.5406 76.7472 61.9423 76.7476C64.1308 76.7414 66.038 75.3056 66.5796 73.2563L72.6333 50.2823C72.6683 50.15 72.6474 50.0097 72.5753 49.8923C72.5032 49.7749 72.3858 49.6901 72.2488 49.6564Z" fill="#222831"/>
<path d="M28.389 67.9255L4.66684 61.8881C3.71054 61.6448 2.89343 61.0443 2.39533 60.2187C1.89722 59.3931 1.75893 58.4101 2.01088 57.4859L7.17248 38.5431C7.69897 36.6202 9.73653 35.4718 11.7276 35.9758L16.8486 37.2793C17.1055 37.3475 17.3746 37.2198 17.4759 36.9817C17.5771 36.7435 17.4785 36.4698 17.2462 36.3438C15.871 34.6345 15.5985 32.3261 16.5402 30.3615C17.4819 28.3968 19.48 27.1048 21.7184 27.0132C24.6345 26.893 27.2157 28.8213 27.8301 31.5788C28.4445 34.3364 26.9131 37.1205 24.2043 38.1708C24.0247 38.2167 23.8838 38.3514 23.8344 38.5245C23.7984 38.6565 23.8181 38.797 23.8892 38.9149C23.9604 39.0329 24.0771 39.1187 24.2137 39.1534L35.4492 42.0128C35.7332 42.084 36.0233 41.92 36.0981 41.6458C36.1728 41.3717 36.0041 41.0907 35.7208 41.0174L25.8183 38.4973C29.0241 36.494 30.0035 32.3919 28.03 29.2337C26.0564 26.0755 21.8439 25.0035 18.5169 26.8128C15.1899 28.6222 13.9519 32.6585 15.721 35.9278L11.9991 34.9805C9.43895 34.3294 6.81728 35.8068 6.14256 38.2807L0.980951 57.2235C0.657036 58.4116 0.834797 59.6754 1.47512 60.7369C2.11545 61.7984 3.16589 62.5705 4.39532 62.8834L28.1175 68.9209C28.3017 68.9685 28.4983 68.9173 28.6328 68.7866C28.7673 68.6559 28.8192 68.4657 28.7688 68.2879C28.7185 68.1101 28.5736 67.9718 28.389 67.9255Z" fill="#222831"/>
</svg>
