<svg width="79" height="77" viewBox="0 0 79 77" fill="none" xmlns="http://www.w3.org/2000/svg">
<path fill-rule="evenodd" clip-rule="evenodd" d="M68.8185 30.4594L78.0072 20.0443C78.5695 19.4438 78.8018 18.6202 78.6324 17.827C78.463 17.0338 77.9123 16.3663 77.15 16.03L50.6257 3.35847C50.3654 3.23408 50.0501 3.33714 49.9214 3.58865C49.7927 3.84017 49.8993 4.14489 50.1596 4.26928L76.7024 16.9493C77.166 17.1496 77.5013 17.5534 77.6033 18.0342C77.7053 18.5149 77.5614 19.0137 77.2167 19.3742L67.903 29.9306L55.3749 22.8736C55.124 22.7322 54.802 22.8142 54.6558 23.0567C54.5095 23.2991 54.5943 23.6103 54.8452 23.7517L66.908 30.5466L39.4157 43.236L11.9473 30.5571L23.5049 24.3529C23.6704 24.2653 23.7746 24.0987 23.778 23.9164C23.7815 23.7341 23.6835 23.564 23.5214 23.4707C23.3593 23.3773 23.1578 23.3752 22.9936 23.4649L11.1833 29.8048L2.01414 19.4818C1.66843 19.1209 1.524 18.621 1.62622 18.1392C1.72843 17.6574 2.06474 17.2528 2.52951 17.0525L28.3465 4.26582C28.5147 4.1835 28.6244 4.02042 28.6341 3.83843C28.6437 3.65644 28.5517 3.48342 28.393 3.38497C28.2344 3.28652 28.0333 3.27774 27.8661 3.36194L2.06854 16.1392C1.30807 16.4793 0.760849 17.1493 0.595168 17.9431C0.429487 18.737 0.665186 19.5596 1.22978 20.158L10.2064 30.2659L1.17331 38.4914C0.560997 39.0485 0.261647 39.8553 0.368073 40.6615C0.474498 41.4677 0.973837 42.176 1.71127 42.5667L10.2755 47.1643V61.8546C10.2786 62.8322 10.8591 63.7222 11.7703 64.1465L38.2834 76.384C38.9996 76.7161 39.833 76.7161 40.5492 76.384L67.0622 64.1465C67.9735 63.7222 68.5539 62.8322 68.557 61.8546V46.9542L77.0093 42.4888C77.7481 42.099 78.2489 41.3906 78.3562 40.5837C78.4635 39.7768 78.1642 38.9691 77.5514 38.4115L68.8185 30.4594ZM1.41149 40.5348C1.34412 40.0501 1.52398 39.564 1.89403 39.2305L10.7759 31.1427L38.3219 43.8572L27.2757 53.9143C26.7808 54.3671 26.0402 54.4599 25.4421 54.144L2.21843 41.6767C1.77393 41.4449 1.47318 41.0193 1.41149 40.5348ZM11.3268 61.8546C11.3286 62.4413 11.6771 62.9754 12.2241 63.2298L38.7371 75.4673C38.7872 75.487 38.8382 75.5041 38.8901 75.5187V44.7351L27.9964 54.6534C27.1695 55.4089 25.9327 55.5627 24.935 55.0339L11.3268 47.7287V61.8546ZM67.5058 61.8546C67.504 62.4413 67.1555 62.9754 66.6085 63.2298L40.0954 75.4673C40.045 75.4871 39.9936 75.5044 39.9414 75.5191V45.3138L50.1996 54.6534C51.027 55.4096 52.2648 55.5634 53.2631 55.0339L67.5057 47.5096L67.5058 61.8546ZM76.5053 41.5969C76.9505 41.3649 77.252 40.939 77.3143 40.4539C77.3807 39.9696 77.2006 39.4842 76.8307 39.1512L68.0432 31.1488L40.0879 44.0518L50.9203 53.9142C51.4171 54.3678 52.16 54.4598 52.759 54.142L76.5053 41.5969Z" fill="#222831"/>
<path d="M37.9939 26.2326C38.6091 26.81 39.588 26.81 40.2032 26.2326L48.7839 18.0987C48.9897 17.9017 48.992 17.581 48.789 17.3813C48.5861 17.1816 48.2542 17.1781 48.0468 17.3734L39.6242 25.3574V0.572935C39.6242 0.292378 39.3889 0.0649414 39.0986 0.0649414C38.8083 0.0649414 38.5729 0.292378 38.5729 0.572935V25.3584L30.1493 17.3734C30.0152 17.2462 29.8211 17.1977 29.6401 17.2463C29.459 17.2949 29.3185 17.4331 29.2715 17.6089C29.2245 17.7848 29.2781 17.9715 29.4122 18.0987L37.9939 26.2326Z" fill="#222831"/>
</svg>
