<svg width="81" height="71" viewBox="0 0 81 71" fill="none" xmlns="http://www.w3.org/2000/svg">
<path d="M46.3886 9.14697H34.5278C34.2375 9.14697 34.0021 9.37441 34.0021 9.65497C34.0021 9.93552 34.2375 10.163 34.5278 10.163H46.3886C46.6789 10.163 46.9142 9.93552 46.9142 9.65497C46.9142 9.37441 46.6789 9.14697 46.3886 9.14697Z" fill="#222831"/>
<path fill-rule="evenodd" clip-rule="evenodd" d="M65.9538 50.7787H75.4774C78.089 50.7815 80.2053 52.8268 80.2082 55.3506V65.6211C80.2053 68.145 78.089 70.1903 75.4774 70.1931H53.9102C51.2987 70.1903 49.1823 68.145 49.1795 65.6211V55.3506C49.1823 52.8268 51.2987 50.7815 53.9102 50.7787H64.9025V44.4154C64.9 42.4524 63.2541 40.8618 61.223 40.8594H20.5397C18.5086 40.8618 16.8627 42.4524 16.8602 44.4154V50.7787H27.1185C29.73 50.7815 31.8464 52.8268 31.8492 55.3506V65.6211C31.8464 68.145 29.73 70.1903 27.1185 70.1931H5.55126C2.93971 70.1903 0.823346 68.145 0.820496 65.6211V55.3506C0.823346 52.8268 2.93971 50.7815 5.55126 50.7787H15.809V44.4154C15.8118 41.8915 17.9282 39.8462 20.5397 39.8434H39.9324V29.2981H29.7287C27.1171 29.2953 25.0008 27.25 24.9979 24.7261V4.65593C25.0008 2.13205 27.1171 0.0867337 29.7287 0.0839844H50.4961C53.1077 0.0867337 55.2241 2.13205 55.2269 4.65593V24.7261C55.2241 27.25 53.1077 29.2953 50.4961 29.2981H40.9838V39.8434H61.223C63.8346 39.8462 65.9509 41.8915 65.9538 44.4154V50.7787ZM30.7979 55.3506C30.7955 53.3877 29.1496 51.7971 27.1185 51.7947H5.55127C3.52016 51.7971 1.87424 53.3877 1.87178 55.3506V65.6211C1.87423 67.584 3.52016 69.1747 5.55127 69.1771H27.1185C29.1496 69.1747 30.7955 67.584 30.7979 65.6211V55.3506ZM29.7287 28.2821C27.6976 28.2797 26.0517 26.6891 26.0492 24.7262V4.65593C26.0517 2.69301 27.6976 1.10235 29.7287 1.09997H50.4961C52.5272 1.10235 54.1732 2.69301 54.1756 4.65593V24.7261C54.1732 26.6891 52.5272 28.2797 50.4961 28.2821L29.7287 28.2821ZM75.4774 69.1771C77.5085 69.1747 79.1545 67.584 79.1569 65.6211V55.3506C79.1545 53.3877 77.5085 51.7971 75.4774 51.7947H53.9102C51.8791 51.7971 50.2332 53.3877 50.2308 55.3506V65.6211C50.2332 67.584 51.8791 69.1747 53.9102 69.1771H75.4774Z" fill="#222831"/>
<path d="M46.3886 18.2908H34.5278C34.2375 18.2908 34.0021 18.5182 34.0021 18.7988C34.0021 19.0793 34.2375 19.3068 34.5278 19.3068H46.3886C46.6789 19.3068 46.9142 19.0793 46.9142 18.7988C46.9142 18.5182 46.6789 18.2908 46.3886 18.2908Z" fill="#222831"/>
<path d="M70.624 59.978H58.7632C58.4729 59.978 58.2375 60.2055 58.2375 60.486C58.2375 60.7666 58.4729 60.994 58.7632 60.994H70.624C70.9143 60.994 71.1496 60.7666 71.1496 60.486C71.1496 60.2055 70.9143 59.978 70.624 59.978Z" fill="#222831"/>
<path d="M10.4042 60.994H22.265C22.5553 60.994 22.7906 60.7666 22.7906 60.486C22.7906 60.2055 22.5553 59.978 22.265 59.978H10.4042C10.1139 59.978 9.87854 60.2055 9.87854 60.486C9.87854 60.7666 10.1139 60.994 10.4042 60.994Z" fill="#222831"/>
</svg>
