<svg width="41" height="41" viewBox="0 0 41 41" fill="none" xmlns="http://www.w3.org/2000/svg">
<path d="M0 20.4657C0.0227649 9.12878 9.19703 -0.0227225 20.5112 4.23798e-05C31.8481 4.23798e-05 41.0679 9.2426 40.9996 20.5568C40.9313 31.8937 31.7343 41.0452 20.4657 40.9997C9.12873 40.9541 -0.0227644 31.7799 0.0227654 20.4657H0ZM18.0526 30.7099C20.9665 24.4723 23.8576 18.2575 26.7715 12.0199C25.4512 11.4053 24.2219 10.8361 22.9698 10.2443C20.0559 16.5046 17.1648 22.7194 14.2508 28.9343C15.5712 29.5489 16.8005 30.118 18.0526 30.7099ZM14.5468 15.4802C13.5679 14.5013 12.6118 13.5224 11.7239 12.6573C9.10597 15.2753 6.44247 17.9388 3.84727 20.534C6.44247 23.1292 9.0832 25.7699 11.7012 28.3879C12.6118 27.4545 13.5907 26.4984 14.6378 25.4285C13.0215 23.8121 11.3369 22.1275 9.6068 20.4202C11.2686 18.7583 12.9532 17.0965 14.5468 15.503V15.4802ZM37.2206 20.5568C34.5572 17.8933 31.8937 15.2298 29.2529 12.589C28.3651 13.4769 27.409 14.433 26.3845 15.4574C28.0464 17.0965 29.731 18.7811 31.4839 20.534C29.7538 22.2414 28.0692 23.9032 26.4984 25.4512C27.5228 26.4529 28.4789 27.4318 29.435 28.3651C32.0075 25.7927 34.6482 23.152 37.2206 20.5568Z" fill="white"/>
</svg>
