<svg width="43" height="42" viewBox="0 0 43 42" fill="none" xmlns="http://www.w3.org/2000/svg">
<path d="M23.6 41.9733H18.3467C18.2933 41.6133 18.2533 41.24 18.2 40.88C18.0133 39.7067 17.3333 38.9333 16.2 38.64C15.0533 38.3467 14.1067 38.7333 13.3733 39.6533C13.16 39.92 12.96 40.1867 12.7467 40.48C11.2267 39.6 9.72 38.7333 8.21333 37.8533C8.36 37.4933 8.50667 37.1733 8.62667 36.84C9.04 35.7467 8.86667 34.7467 8.04 33.9333C7.21333 33.0933 6.2 32.92 5.09333 33.3467C4.76 33.4667 4.44 33.6133 4.09333 33.76C3.21333 32.24 2.34667 30.7333 1.48 29.2267C1.81333 28.96 2.14667 28.7333 2.44 28.48C3.28 27.7333 3.6 26.7867 3.29333 25.7067C2.98667 24.6267 2.24 23.9733 1.13333 23.7733C0.759999 23.7067 0.386667 23.6667 0 23.6V18.3733C0.386667 18.32 0.746667 18.2667 1.10667 18.2133C2.24 18.0267 3 17.36 3.30667 16.2667C3.61333 15.1467 3.26667 14.1867 2.37333 13.44C2.09333 13.2 1.8 12.9867 1.48 12.7467C2.36 11.2267 3.22667 9.73333 4.09333 8.21333C4.45333 8.36 4.77333 8.50667 5.10667 8.62667C6.2 9.04 7.2 8.86667 8.02667 8.05333C8.86667 7.22667 9.04 6.21333 8.62667 5.10667C8.50667 4.77333 8.36 4.45333 8.21333 4.10667C9.73333 3.22667 11.2267 2.36 12.7467 1.49333C13 1.81333 13.2133 2.13333 13.4667 2.41333C14.2133 3.28 15.16 3.61333 16.2667 3.30667C17.3467 3 18 2.26667 18.2 1.14667C18.2667 0.773333 18.3067 0.4 18.36 0H23.6C23.6533 0.373333 23.6933 0.733333 23.76 1.10667C23.9467 2.26667 24.6267 3.02667 25.7467 3.32C26.8667 3.61333 27.8267 3.25333 28.56 2.36C28.7867 2.09333 28.9867 1.8 29.2267 1.49333C30.7467 2.37333 32.2533 3.24 33.7733 4.12C33.6267 4.46667 33.5067 4.76 33.3867 5.04C32.9333 6.14667 33.0933 7.16 33.92 8.04C34.6933 8.86667 35.8267 9.06667 36.9467 8.61333C37.2533 8.49333 37.5733 8.36 37.8933 8.22667C38.7733 9.76 39.64 11.2533 40.5067 12.76C40.1867 13 39.8933 13.2133 39.6267 13.44C38.7333 14.1867 38.3867 15.1333 38.6933 16.2533C39 17.3467 39.7467 18.0133 40.88 18.2133C41.2533 18.28 41.64 18.32 42.0133 18.36V23.6133C41.6533 23.6667 41.28 23.7067 40.92 23.76C39.7467 23.9467 38.9733 24.6267 38.68 25.76C38.3867 26.9067 38.7733 27.8533 39.6933 28.5867C39.96 28.8 40.2267 29 40.52 29.2133C39.64 30.7333 38.7733 32.24 37.8933 33.7467C37.5333 33.6 37.2133 33.4533 36.88 33.3333C35.7733 32.9067 34.7733 33.0933 33.9333 33.9333C33.12 34.76 32.9467 35.76 33.36 36.84C33.48 37.1733 33.6267 37.4933 33.7733 37.8533C32.2533 38.7333 30.76 39.6 29.24 40.48C29 40.1733 28.8 39.8667 28.56 39.5867C27.8133 38.6933 26.8667 38.3467 25.7333 38.6533C24.64 38.96 23.9733 39.7067 23.7733 40.84C23.7067 41.2133 23.6667 41.6 23.6267 41.9733H23.6ZM35.44 20.96C35.4267 12.96 28.92 6.46667 20.9467 6.50667C12.9467 6.53333 6.52 12.9733 6.50667 20.96C6.50667 28.9467 12.9867 35.44 20.9733 35.44C28.96 35.44 35.4533 28.9467 35.44 20.96Z" fill="white"/>
<path d="M8.97339 20.9467C8.98672 14.3067 14.3601 8.94665 20.9867 8.95999C27.6267 8.95999 33.0267 14.3733 32.9867 21C32.9467 27.64 27.5601 33 20.9601 32.9733C14.3201 32.9467 8.96006 27.5733 8.98672 20.9467H8.97339ZM19.5467 26.9467C21.2534 23.2933 22.9467 19.6533 24.6534 16C23.8801 15.64 23.1601 15.3067 22.4267 14.96C20.7201 18.6267 19.0267 22.2667 17.3201 25.9067C18.0934 26.2667 18.8134 26.6 19.5467 26.9467ZM17.4934 18.0267C16.9201 17.4533 16.3601 16.88 15.8401 16.3733C14.3067 17.9067 12.7467 19.4667 11.2267 20.9867C12.7467 22.5067 14.2934 24.0533 15.8267 25.5867C16.3601 25.04 16.9334 24.48 17.5467 23.8533C16.6001 22.9067 15.6134 21.92 14.6001 20.92C15.5734 19.9467 16.5601 18.9733 17.4934 18.04V18.0267ZM30.7734 21C29.2134 19.44 27.6534 17.88 26.1067 16.3333C25.5867 16.8533 25.0267 17.4133 24.4267 18.0133C25.4001 18.9733 26.3867 19.96 27.4134 20.9867C26.4001 21.9867 25.4134 22.96 24.4934 23.8667C25.0934 24.4533 25.6534 25.0267 26.2134 25.5733C27.7201 24.0667 29.2667 22.52 30.7734 21Z" fill="white"/>
<circle cx="21" cy="21" r="11" fill="white"/>
</svg>
