<svg width="80" height="86" viewBox="0 0 80 86" fill="none" xmlns="http://www.w3.org/2000/svg">
<path d="M28.6036 4.30921C30.5485 1.18661 33.2196 -0.430455 36.6686 0.0992728C40.5843 0.712641 42.8145 3.38916 43.6444 7.51546C49.2976 2.63639 55.8066 6.14932 57.4403 10.7496C57.181 10.8611 56.9476 11.0005 56.6883 11.112C54.3803 12.0878 52.5132 13.677 51.061 15.8517C50.9313 16.0469 50.6979 16.2978 50.6979 16.4929C50.6979 16.8833 50.7498 17.413 50.9832 17.5803C51.2166 17.7476 51.7093 17.5803 52.0464 17.4688C52.228 17.3851 52.3317 17.0784 52.4873 16.8833C56.6624 10.6102 65.7646 10.2756 70.3028 16.242C70.3546 16.3257 70.4065 16.4372 70.5102 16.6045C68.695 16.8833 67.0872 17.5524 65.6868 18.7234C65.5053 18.8907 65.22 19.0301 65.1682 19.2252C65.0904 19.5877 65.0126 20.1453 65.1941 20.3683C65.3756 20.5914 65.8683 20.5356 66.2314 20.5635C66.361 20.5635 66.4907 20.3683 66.6204 20.2568C69.1358 18.1936 71.8587 17.8591 74.7372 19.1416C77.6675 20.4798 79.5087 22.8776 79.9236 26.3068C80.5979 32.1338 76.734 36.762 71.2363 36.8177C68.9024 36.8456 66.5426 36.8177 64.2087 36.8177C45.9264 36.8177 27.6701 36.8177 9.38779 36.8177C5.86099 36.8177 3.1381 35.2843 1.58216 31.8272C-0.959204 26.1396 2.82691 19.6713 8.68761 19.504C8.94694 19.504 9.20626 19.504 9.49151 19.504C9.28406 18.584 8.9988 17.6918 8.89507 16.7996C8.40236 12.1715 12.5256 8.4355 16.7007 9.69012C17.2193 9.85741 17.4009 10.0526 17.4268 10.6659C17.5305 13.2031 18.2048 15.4892 19.8644 17.3572C20.0719 17.5803 20.3053 17.8591 20.5387 17.9148C20.8239 17.9706 21.2648 17.8591 21.4463 17.636C21.6019 17.413 21.576 16.9669 21.5241 16.6323C21.4982 16.4372 21.2648 16.2978 21.1092 16.1305C18.4122 13.1752 18.2566 7.90578 20.7721 4.7553C22.8726 2.07878 25.777 1.79998 28.3184 4.00253C28.4221 4.08617 28.5258 4.16981 28.6296 4.25345L28.6036 4.30921ZM37.1613 12.8127C32.675 13.2309 29.2519 15.5171 26.9958 19.7271C26.7106 20.2847 26.5031 20.8702 27.1514 21.2884C27.8256 21.7066 28.1628 21.2326 28.474 20.675C30.4189 16.9948 33.3752 15.0153 37.2909 14.6528C37.9392 14.5971 38.7172 14.7365 38.7431 13.6491C38.7431 12.98 38.3023 12.757 37.1872 12.8127H37.1613ZM52.0724 24.8849C51.1388 25.0522 50.2052 25.2195 49.2717 25.4147C48.6752 25.5541 48.2862 25.9165 48.4678 26.6414C48.6493 27.3105 49.1161 27.3663 49.6866 27.199C52.7207 26.3068 55.4176 27.0038 57.7256 29.2622C58.1664 29.7082 58.6592 29.9313 59.1 29.3737C59.5668 28.8161 59.3075 28.3421 58.8666 27.896C56.9476 26.0002 54.6915 25.0243 52.0724 24.8849ZM10.0102 29.5131C10.1398 30.2937 10.451 30.6004 11.0475 30.6562C13.6925 30.8513 17.1934 28.5094 18.2048 25.9165C18.4122 25.4147 18.3604 24.9407 17.8936 24.6619C17.4268 24.3831 16.986 24.5225 16.7266 25.0243C15.4559 27.4778 13.537 28.7324 10.9178 28.8718C10.6066 28.8718 10.2954 29.3179 10.0102 29.541V29.5131ZM37.0316 28.5373C37.1353 29.4294 37.4725 29.7082 38.043 29.6804C39.9101 29.5688 41.3104 28.6488 42.2181 26.8923C42.4774 26.3905 42.3996 25.9165 41.9588 25.6377C41.5179 25.3589 41.0511 25.4425 40.7918 25.9444C40.1435 27.1433 39.2099 27.7845 37.9133 27.896C37.5762 27.9239 37.265 28.37 37.0316 28.5651V28.5373Z" fill="#222831"/>
<path d="M23.7794 38.7139H27.4878V50.0612H52.1494V38.7139H55.9096C55.9096 39.0206 55.9355 39.2715 55.9355 39.5224C55.9355 43.2863 55.9355 47.078 55.9355 50.8419C55.9355 53.0166 54.8982 54.1318 52.9014 54.1318C44.1882 54.1318 35.449 54.1318 26.7357 54.1318C24.7649 54.1318 23.7276 53.0166 23.7276 50.8976C23.7276 47.1059 23.7276 43.2863 23.7276 39.4946C23.7276 39.2436 23.7276 38.9927 23.7794 38.686V38.7139Z" fill="#222831"/>
<path d="M29.2256 48.2214V38.77H50.4382V48.2214H29.2256Z" fill="#222831"/>
<path d="M47.6641 56.0281H49.3238C49.3238 57.3106 49.3238 58.5652 49.3238 59.792C49.3238 62.4406 49.3497 65.1171 49.3757 67.7658C49.3757 69.6616 50.2055 70.5259 51.9689 70.5259C56.9479 70.498 61.9269 70.4423 66.88 70.4144C67.2949 70.4144 67.5283 70.275 67.7617 69.8847C68.41 68.7137 69.6029 68.2119 70.7698 68.5743C71.9108 68.9368 72.6888 70.0241 72.7147 71.3066C72.7147 72.5891 71.9627 73.7043 70.8217 74.0667C69.6547 74.4571 68.41 73.9831 67.7876 72.8121C67.5283 72.3103 67.2171 72.2545 66.7763 72.2545C61.901 72.3103 57.0516 72.3382 52.1764 72.366C49.1942 72.366 47.6641 70.749 47.6641 67.5427C47.6641 63.974 47.6641 60.4054 47.6382 56.8088C47.6382 56.5579 47.6382 56.3069 47.6641 56.0281Z" fill="#222831"/>
<path d="M29.9517 55.999H31.5854C31.5854 56.3057 31.6373 56.6124 31.6373 56.8912C31.6373 60.7387 31.6373 64.6141 31.6373 68.4616C31.6373 71.4726 30.0814 73.1176 27.3066 73.1455C26.6583 73.1455 26.0359 73.1176 25.3876 73.2012C24.1688 73.3406 23.4168 74.2328 23.3908 75.5432C23.3908 76.6584 23.3649 77.7736 23.3908 78.8888C23.3908 79.1955 23.5983 79.558 23.8317 79.7252C24.9208 80.5338 25.4135 81.7884 25.0505 83.0709C24.6874 84.2976 23.6761 85.1061 22.4832 85.1061C21.3162 85.1061 20.253 84.2419 19.9418 83.043C19.6047 81.7605 20.0974 80.5338 21.2125 79.7252C21.42 79.5858 21.6274 79.2234 21.6274 78.9446C21.6793 77.8294 21.6274 76.7141 21.6274 75.5989C21.6534 73.1455 23.2871 71.389 25.5691 71.3611C26.1397 71.3611 26.6842 71.3611 27.2547 71.3611C29.0181 71.3611 29.8739 70.4689 29.8739 68.601C29.8739 64.7256 29.8739 60.8223 29.8998 56.947C29.8998 56.6682 29.8998 56.3894 29.8998 56.0269L29.9517 55.999Z" fill="#222831"/>
<path d="M22.0425 48.4716V50.1444C22.0425 50.1444 21.9387 50.256 21.8869 50.256C20.2791 50.0608 19.0862 50.8693 18.0748 52.124C17.4265 52.9325 16.6485 53.6574 15.9484 54.438C15.0148 55.4696 13.8738 55.9714 12.5253 55.9714C10.3211 55.9714 8.11681 55.9714 5.91257 55.9714C5.49765 55.9714 5.21239 56.0551 4.95307 56.5012C4.33069 57.6721 3.08594 58.174 1.91899 57.8116C0.803901 57.477 0 56.306 0 55.0514C0 53.7968 0.777968 52.6816 1.91899 52.2912C3.06001 51.9288 4.30476 52.4028 4.95307 53.5737C5.18646 54.0198 5.41985 54.1592 5.88663 54.1592C8.03901 54.1592 10.1914 54.1592 12.3438 54.1592C13.3292 54.1592 14.159 53.8247 14.8333 53.044C15.715 52.0682 16.6745 51.1481 17.5302 50.1444C18.7491 48.7504 20.2531 48.3601 22.0165 48.4995L22.0425 48.4716Z" fill="#222831"/>
<path d="M57.6733 41.948V40.2473C58.0105 40.2473 58.3216 40.2473 58.6328 40.2473C60.863 40.2473 63.0932 40.2473 65.3234 40.2473C66.5681 40.2473 67.5795 40.7213 68.4612 41.6692C70.7951 44.1784 70.9766 44.2342 74.3219 43.8996C74.5812 43.8996 74.8405 43.5093 75.022 43.2584C75.7741 42.1153 77.1485 41.6413 78.3414 42.1989C79.5083 42.7566 80.1567 44.1227 79.8714 45.4331C79.5861 46.7713 78.4192 47.775 77.1226 47.6635C76.189 47.6077 75.437 47.1338 74.9702 46.2416C74.7627 45.8234 74.5034 45.684 74.0885 45.7119C73.2587 45.7397 72.4288 45.7119 71.6249 45.7119C70.432 45.7119 69.4207 45.2379 68.5649 44.3178C66.2569 41.8365 66.8793 42.0595 63.4303 42.0317C61.5632 42.0317 59.6961 42.0317 57.8549 42.0317C57.803 42.0317 57.7511 41.9759 57.6733 41.948Z" fill="#222831"/>
<path d="M57.6733 50.2843V48.4163C58.6588 48.4163 59.6183 48.4163 60.5518 48.4163C62.4708 48.4163 64.3898 48.4163 66.2829 48.4163C68.3315 48.4163 69.5503 49.7267 69.5763 51.9293C69.5763 53.3233 69.5763 54.7173 69.5763 56.1392C69.5763 57.7005 69.9652 58.1466 71.4175 58.1466C72.377 58.1466 73.3364 58.1466 74.2959 58.1466C74.8924 58.1466 75.2814 58.3696 75.2814 59.0945C75.2814 59.7636 74.8665 59.9588 74.3219 59.9588C73.1809 59.9588 72.0398 59.9588 70.8988 59.9588C69.1873 59.903 67.9425 58.5927 67.9166 56.7526C67.9166 55.2749 67.9166 53.7694 67.9166 52.2917C67.9166 50.7862 67.5017 50.3401 66.1273 50.3401C63.3266 50.3401 60.5518 50.3401 57.6733 50.3401V50.2843Z" fill="#222831"/>
<path d="M26.2953 55.9987H28.1106C27.9809 57.3648 28.0328 58.7589 27.7216 60.0414C27.3067 61.7142 25.8285 62.7736 24.1688 62.8015C22.95 62.8015 21.7312 62.8015 20.5124 62.8294C20.2531 62.8294 19.89 63.0524 19.7344 63.3034C19.0083 64.4743 17.8414 65.0041 16.6485 64.6416C15.5334 64.307 14.7295 63.1361 14.7295 61.8815C14.7295 60.6268 15.5075 59.5116 16.6485 59.1213C17.8414 58.731 18.9824 59.2607 19.7344 60.4317C19.89 60.6826 20.2531 60.9056 20.5124 60.9056C21.6793 60.9614 22.8463 60.9335 24.0133 60.9056C25.4395 60.8778 26.2694 59.9577 26.2953 58.4243C26.2953 57.6158 26.2953 56.8351 26.2953 55.9429V55.9987Z" fill="#222831"/>
<path d="M51.7086 55.999H53.4201C53.4201 57.4767 53.4201 58.9265 53.4201 60.3762C53.4201 62.0491 53.7832 62.4394 55.3391 62.4394C56.5839 62.4394 57.8286 62.4394 59.0734 62.4394C60.2403 62.4394 60.7071 61.9097 60.7331 60.6551C60.7331 60.0974 60.7331 59.512 60.7331 58.9543C60.7331 58.3131 60.9405 57.867 61.5888 57.867C62.1853 57.867 62.4187 58.3131 62.4187 58.8986C62.4187 59.7071 62.4187 60.4878 62.4187 61.2963C62.3409 62.8855 61.1739 64.168 59.6958 64.2237C57.9842 64.2795 56.2468 64.2795 54.5093 64.2237C53.0312 64.168 51.8642 62.9412 51.7605 61.3242C51.6568 59.5956 51.7605 57.867 51.7605 56.0269L51.7086 55.999Z" fill="#222831"/>
<path d="M22.0169 44.5409V46.2973C21.7575 46.2973 21.5241 46.3531 21.2908 46.3531C16.1043 46.3531 10.9178 46.3531 5.7573 46.3531C5.44611 46.3531 5.109 46.3252 4.84968 46.1579C4.33103 45.7955 4.43476 44.8754 5.0312 44.6245C5.23866 44.5409 5.49798 44.513 5.73137 44.513C10.9697 44.513 16.208 44.513 21.4463 44.513C21.6279 44.513 21.8094 44.5409 22.0428 44.5688L22.0169 44.5409Z" fill="#222831"/>
<path d="M38.9242 55.9995H40.5061C40.5061 56.3062 40.5579 56.585 40.5579 56.8359C40.5579 60.9064 40.5579 65.0049 40.5579 69.0754C40.5579 69.3263 40.6098 69.6609 40.5061 69.8282C40.2986 70.107 39.9874 70.4694 39.7022 70.4415C39.4429 70.4415 39.1576 70.0512 38.9242 69.8003C38.8464 69.7166 38.8983 69.4657 38.8983 69.2984C38.8983 65.0606 38.8983 60.8507 38.8983 56.6129C38.8983 56.4177 38.8983 56.2225 38.9501 55.9716L38.9242 55.9995Z" fill="#222831"/>
<path d="M21.9646 40.2755V42.032C21.7572 42.032 21.5757 42.0877 21.4201 42.0877C18.0489 42.0877 14.6777 42.0877 11.2805 42.0877C10.9434 42.0877 10.5285 41.9483 10.2951 41.6974C10.1395 41.5301 10.1136 40.9725 10.2432 40.7774C10.3988 40.5264 10.7878 40.3313 11.099 40.3313C12.8365 40.2755 14.548 40.3313 16.2855 40.3313C18.1526 40.3313 19.9938 40.3313 21.9646 40.3313V40.2755Z" fill="#222831"/>
<path d="M33.7899 55.999H35.3977C35.4236 56.1942 35.4755 56.3893 35.4755 56.5845C35.4755 59.261 35.4755 61.9654 35.4755 64.6419C35.4755 64.6977 35.4755 64.7535 35.4755 64.8092C35.4755 65.3947 35.2421 65.8408 34.6456 65.8408C34.0233 65.8408 33.7639 65.4226 33.7639 64.7814C33.7639 62.9691 33.7639 61.1848 33.7639 59.3725C33.7639 58.2573 33.7639 57.17 33.7639 55.999H33.7899Z" fill="#222831"/>
<path d="M43.9813 56.0281H45.641C45.641 56.6694 45.641 57.2827 45.641 57.8961C45.641 60.1823 45.641 62.4685 45.641 64.7547C45.641 65.4238 45.4076 65.9257 44.7334 65.842C44.4481 65.8141 44.0332 65.3681 44.0073 65.1171C43.9554 62.1061 43.9813 59.095 43.9813 56.0281Z" fill="#222831"/>
<path d="M57.6733 46.3248V44.4847C58.4772 44.4847 59.2293 44.4847 59.9813 44.4847C60.8889 44.4847 61.7966 44.4847 62.7042 44.4847C63.2488 44.4847 63.6378 44.7635 63.6378 45.4048C63.6378 46.046 63.2747 46.3248 62.7042 46.3248C61.0445 46.3248 59.4108 46.3248 57.6733 46.3248Z" fill="#222831"/>
</svg>
