<svg width="80" height="99" viewBox="0 0 80 99" fill="none" xmlns="http://www.w3.org/2000/svg">
<path d="M39.1069 98.9305C37.6308 98.4908 36.2803 97.8941 35.2754 96.6378C32.7001 93.4344 33.8307 88.7864 37.5994 87.0905C38.1647 86.8392 38.3845 86.588 38.3531 85.9598C38.3531 75.1876 38.3531 64.4468 38.3531 53.6746C38.3531 53.4548 38.3531 53.2349 38.3217 52.9523H34.4588C34.4588 53.3291 34.4588 53.706 34.4588 54.0829C34.4588 62.7823 34.4588 71.4817 34.4588 80.1812C34.4588 81.9713 33.9249 82.5052 32.1662 82.5052C28.3347 82.5052 24.5031 82.5052 20.6716 82.5052C20.0749 82.5052 19.7923 82.6308 19.541 83.2275C18.4104 85.9598 15.5211 87.4673 12.6945 86.902C9.77379 86.3053 7.701 83.7928 7.701 80.8407C7.701 77.9514 9.71097 75.4075 12.4747 74.8108C15.4268 74.1512 18.2848 75.6273 19.541 78.391C19.698 78.7051 20.0749 79.1134 20.3262 79.1134C23.8122 79.1448 27.2669 79.1134 30.7529 79.1134C30.8157 79.1134 30.8785 79.082 31.0042 79.0191V52.9523H27.1412C27.1412 53.4234 27.1412 53.863 27.1412 54.3027C27.1412 57.5689 27.1412 60.8037 27.1412 64.07C27.1412 65.7973 26.6387 66.2998 24.88 66.2998C21.0799 66.2998 17.2798 66.2998 13.4797 66.2998C12.8202 66.2998 12.4747 66.4568 12.192 67.1163C10.9986 69.88 8.14068 71.2933 5.21993 70.6966C2.45621 70.0999 0.414832 67.556 0.383426 64.6981C0.383426 61.7773 2.33059 59.2962 5.21993 58.6367C8.07786 57.9772 10.9986 59.4847 12.2548 62.2798C12.3805 62.5939 12.7887 62.9707 13.0714 62.9707C16.5889 63.0021 20.0749 62.9707 23.6866 62.9707V52.8895C23.3725 52.8895 23.0271 52.8895 22.6816 52.8895C19.1013 52.8895 15.5211 52.9523 11.9408 52.8895C5.12571 52.7638 -0.213289 47.1736 0.00655262 40.4213C0.10077 37.0923 1.38842 34.2344 3.83807 31.9417C4.27776 31.5335 4.37197 31.2194 4.21494 30.6227C2.3934 24.7812 5.0629 18.6884 10.5903 16.0504C11.1556 15.7677 11.3755 15.5165 11.3755 14.8569C11.2499 7.60217 16.6831 1.13256 23.718 0.158977C31.381 -0.908823 38.2275 3.488 40.2375 10.7742C40.3003 11.0254 40.3945 11.2453 40.4573 11.4651C44.3831 12.1246 45.4509 12.6899 48.089 15.5793C52.7684 13.1924 57.4479 13.161 61.9075 16.0818C66.3358 19.0025 68.2201 23.3051 67.9061 28.5499C68.9425 28.7069 69.916 28.8011 70.8896 29.0524C76.6055 30.5285 80.5626 36.1187 79.9345 41.8032C79.2122 48.1158 74.3443 52.7324 68.0631 52.858C64.1688 52.9523 60.2744 52.858 56.2859 52.858V62.9393C56.5686 62.9393 56.8512 62.9393 57.1653 62.9393C60.2744 62.9393 63.415 62.9393 66.5242 62.9393C67.1523 62.9393 67.4664 62.8137 67.749 62.1856C68.9111 59.4533 71.769 57.9772 74.5955 58.5425C77.4849 59.1392 79.5577 61.6831 79.5577 64.6038C79.5577 67.4618 77.5163 70.0057 74.7525 70.6338C71.8318 71.2619 68.9425 69.8172 67.7176 66.9907C67.4664 66.4254 67.1837 66.237 66.587 66.237C62.7555 66.237 58.924 66.237 55.0925 66.237C53.3023 66.237 52.8312 65.7345 52.8312 63.9443C52.8312 60.6153 52.8312 57.3177 52.8312 53.9887C52.8312 53.6432 52.8312 53.2977 52.8312 52.8895H48.9683V79.0191C49.2824 79.0191 49.5964 79.082 49.8791 79.082C52.9883 79.082 56.1289 79.082 59.238 79.082C59.8662 79.082 60.1802 78.9563 60.4629 78.3282C61.6563 75.5331 64.5771 74.0884 67.4978 74.7165C70.2615 75.3133 72.2715 77.8571 72.2715 80.7465C72.2715 83.6986 70.2301 86.1797 67.278 86.8078C64.4828 87.3731 61.5621 85.8656 60.4315 83.1647C60.1488 82.5052 59.8033 82.411 59.2066 82.411C55.3751 82.411 51.5436 82.411 47.7121 82.411C46.079 82.411 45.5137 81.8457 45.5137 80.2126C45.5137 71.5131 45.5137 62.8137 45.5137 54.1143V52.8895H41.5879V53.8944C41.5879 64.4782 41.5879 75.0934 41.5879 85.6772C41.5879 86.2111 41.5565 86.6508 42.2475 86.9648C44.7913 88.0326 46.2674 90.4823 46.0476 93.089C45.8591 95.7585 44.0062 97.9255 41.3053 98.6478C41.1483 98.6792 41.0226 98.7735 40.8656 98.8363H38.9184L39.1069 98.9305Z" fill="#222831"/>
</svg>
