<svg width="80" height="80" viewBox="0 0 80 80" fill="none" xmlns="http://www.w3.org/2000/svg">
<path d="M0 39.9331C0.0444194 17.8122 17.9454 -0.0443367 40.0218 8.26924e-05C62.1427 8.26924e-05 80.1325 18.0343 79.9993 40.1108C79.866 62.2316 61.9206 80.0882 39.933 79.9993C17.8122 79.9105 -0.0444183 62.0095 0.0444204 39.9331H0ZM35.2245 59.9218C40.9102 47.7509 46.5515 35.6244 52.2372 23.4535C49.6608 22.2542 47.2622 21.1437 44.8191 19.9888C39.1335 32.2041 33.4922 44.3306 27.8065 56.4571C30.3828 57.6564 32.7815 58.7669 35.2245 59.9218ZM28.384 30.2052C26.4739 28.2952 24.6083 26.3852 22.876 24.6972C17.7677 29.8055 12.5707 35.0025 7.50687 40.0663C12.5707 45.1302 17.7233 50.2828 22.8315 55.391C24.6083 53.5698 26.5184 51.7042 28.5616 49.6165C25.4079 46.4627 22.1208 43.1757 18.745 39.8442C21.9876 36.6016 25.2746 33.359 28.384 30.2497V30.2052ZM72.6256 40.1108C67.4286 34.9137 62.2315 29.7166 57.0789 24.564C55.3465 26.2963 53.4809 28.162 51.482 30.1608C54.7247 33.359 58.0117 36.6461 61.432 40.0663C58.0561 43.3978 54.7691 46.6404 51.7041 49.6609C53.703 51.6154 55.5686 53.5254 57.4342 55.3466C62.4536 50.3272 67.6063 45.1746 72.6256 40.1108Z" fill="#222831"/>
</svg>
