<svg width="80" height="80" viewBox="0 0 80 80" fill="none" xmlns="http://www.w3.org/2000/svg">
<path d="M66.0949 21.6231L47.695 3.17314C46.7209 2.16917 45.5551 1.37099 44.2668 0.825924C42.9785 0.280858 41.5939 0 40.195 0C38.7961 0 37.4115 0.280858 36.1232 0.825924C34.8349 1.37099 33.6691 2.16917 32.695 3.17314L14.2451 21.6231L40.095 34.523L66.0949 21.6231ZM73.1549 29.0731L76.8049 32.723C77.8151 33.6935 78.6189 34.8581 79.1679 36.1469C79.717 37.4357 80 38.8221 80 40.223C80 41.6239 79.717 43.0103 79.1679 44.2991C78.6189 45.5879 77.8151 46.7525 76.8049 47.723L47.4016 77.4162C46.7047 78.1292 45.8935 78.7206 45.0016 79.1662V43.173L73.1549 29.0731ZM6.84512 29.0731L3.19513 32.723C2.18488 33.6935 1.38112 34.8581 0.832068 36.1469C0.283017 37.4357 0 38.8221 0 40.223C0 41.6239 0.283017 43.0103 0.832068 44.2991C1.38112 45.5879 2.18488 46.7525 3.19513 47.723L32.6017 77.4162C33.3017 78.1296 34.1117 78.7229 35.0017 79.1662V43.173L6.84512 29.0731Z" fill="#222831"/>
</svg>
