<svg width="80" height="71" viewBox="0 0 80 71" fill="none" xmlns="http://www.w3.org/2000/svg">
<path d="M0 16.2301C0.457139 16.2555 0.939676 16.3063 1.39682 16.3063C4.21584 16.3063 7.00947 16.3063 9.8285 16.3063C10.1079 16.3063 10.3872 16.3063 10.7174 16.3063V53.9695C10.4126 53.9695 10.1333 53.9695 9.8285 53.9695C6.85709 53.9695 3.88568 53.9695 0.914278 53.9695C0.609518 53.9695 0.30476 54.0203 0 54.0457C0 41.449 0 28.8268 0 16.2301Z" fill="#222831"/>
<path d="M33.9554 19.0226C42.8696 19.0226 50.1076 26.2099 50.133 35.1241C50.133 44.0383 42.9458 51.2764 34.0062 51.2764C25.092 51.2764 17.8539 44.0891 17.8285 35.1749C17.8285 26.2607 25.0412 19.0226 33.9554 19.0226ZM34.0062 40.5082C36.9776 40.5082 39.3649 38.1209 39.3903 35.1495C39.3903 32.1781 37.003 29.7908 34.0316 29.7654C31.0348 29.7654 28.5967 32.1527 28.6221 35.1495C28.6221 38.0955 31.0348 40.4828 34.0062 40.4828V40.5082Z" fill="#222831"/>
<path d="M73.3207 53.9429H62.5272V27.0986H55.8479V16.3812H80V27.0478H73.3207V53.9429Z" fill="#222831"/>
<path d="M51.9863 10.3882C39.9483 2.71846 28.0626 2.71846 16.0246 10.3882C15.1866 9.2454 14.2977 8.02636 13.4088 6.78193C23.7452 -1.44659 41.6752 -3.02118 54.6529 6.73113C53.764 7.95017 52.8752 9.19461 52.0117 10.3882H51.9863Z" fill="#222831"/>
<path d="M51.9863 59.9113C52.8498 61.0796 53.7387 62.2986 54.6021 63.5176C43.7832 72.0763 25.8785 73.016 13.358 63.543C14.2469 62.324 15.1358 61.0796 15.9993 59.9113C27.9865 67.5811 39.9229 67.6065 51.9609 59.9113H51.9863Z" fill="#222831"/>
<path d="M46.4509 18.0067C38.0954 12.6989 29.8669 12.6989 21.5622 18.0067C20.6987 16.8131 19.8098 15.5941 18.8701 14.2988C23.086 11.2258 27.7843 9.60046 32.9399 9.39729C38.8827 9.16872 44.2668 10.7941 49.1683 14.2988C48.2286 15.5941 47.3144 16.8385 46.4509 18.0067Z" fill="#222831"/>
<path d="M18.8693 55.9751C19.7836 54.7053 20.6725 53.5116 21.536 52.2926C29.8407 57.6005 38.0946 57.6005 46.4247 52.2926C47.2882 53.4862 48.1771 54.7053 49.0913 55.9497C41.193 62.1973 28.0883 62.9592 18.8439 55.9751H18.8693Z" fill="#222831"/>
</svg>
