<svg width="100" height="82" viewBox="0 0 100 82" fill="none" xmlns="http://www.w3.org/2000/svg">
<path d="M22.6954 37.8711V33.3985L42.0704 22.4805V27.2461L26.6993 35.6641L42.0704 44.1602V48.9258L22.6954 37.8711ZM77.2852 37.8711L57.9102 48.9258V44.1602L73.2618 35.6641L57.9102 27.2461V22.4805L77.2852 33.3985V37.8711Z" fill="#393E46"/>
<path d="M1.5625 0H98.4375C99.2969 0 100 0.703125 100 1.5625V69.8242C100 70.6836 99.2969 71.3867 98.4375 71.3867H1.5625C0.703125 71.3867 0 70.6836 0 69.8242V1.5625C0 0.703125 0.703125 0 1.5625 0ZM96.875 3.125H3.125V68.2617H96.875V3.125Z" fill="#393E46"/>
<path d="M40.8985 68.2813H59.1016C59.961 68.2813 60.6641 68.9844 60.6641 69.8438V80.0781C60.6641 80.9375 59.961 81.6406 59.1016 81.6406H40.8985C40.0391 81.6406 39.336 80.9375 39.336 80.0781V69.8438C39.336 68.9844 40.0391 68.2813 40.8985 68.2813ZM57.5391 71.4063H42.461V78.5156H57.5391V71.4063Z" fill="#393E46"/>
<path d="M25.8204 78.5157C24.961 78.5157 24.2579 79.2188 24.2579 80.0782C24.2579 80.9375 24.961 81.6407 25.8204 81.6407H74.1797C75.0391 81.6407 75.7422 80.9375 75.7422 80.0782C75.7422 79.2188 75.0391 78.5157 74.1797 78.5157H25.8204Z" fill="#393E46"/>
</svg>
