<svg width="1440" height="1166" viewBox="0 0 1440 1166" fill="none" xmlns="http://www.w3.org/2000/svg">
<path d="M633.717 8.50076e-05C711.982 7.81655e-05 797.954 16.9006 897.921 51.5186C945.666 68.0497 993.236 87.2258 1039.23 105.779C1099.8 130.207 1162.46 155.47 1225.77 174.743C1355.73 214.321 1470.06 220.349 1565.55 192.675L1570.98 211.345C1471.8 240.09 1353.75 234.041 1220.11 193.336C1155.97 173.81 1092.93 148.391 1031.97 123.808C986.19 105.352 938.853 86.2729 891.575 69.8974C757.508 23.4743 649.678 9.5881 552.222 26.197C502.647 34.657 434.582 55.9918 391.8 109.728C334.498 181.725 346.469 301.06 417.434 365.103C451.048 395.423 496.691 413.627 545.974 416.311C594.673 418.975 642.865 406.47 681.735 381.129L692.382 397.407C603.646 455.285 479.836 447.603 404.393 379.534C367.256 346.025 342.732 296.334 337.106 243.201C331.326 188.552 345.34 136.858 376.56 97.6307C423.157 39.0913 496.01 16.0644 548.932 7.04038C576.338 2.37277 604.482 0.0196188 633.717 0.0196163L633.717 8.50076e-05Z" fill="url(#paint0_linear_0_153)" fill-opacity="0.2"/>
<path d="M-131.854 198.944C-95.6919 198.944 -58.0318 207.695 -23.0952 224.925C26.9756 249.622 73.4866 291.375 115.134 349.016C238.561 519.819 264.608 755.284 181.487 948.917L163.61 941.255C244.085 753.767 218.875 525.77 99.3585 360.412C59.578 305.377 15.4792 265.666 -31.7126 242.369C-87.6385 214.773 -150.82 210.709 -200.716 231.498C-255.611 254.348 -293.757 310.103 -291.404 364.049C-290.081 394.658 -277.398 424.043 -253.743 451.405C-232.852 475.558 -204.47 496.716 -171.634 512.604C-140.899 527.481 -107.577 538.469 -75.325 549.106C-41.7499 560.172 -7.04668 571.626 25.4584 587.592C60.5119 604.822 90.8577 627.925 113.228 654.412C139.119 685.06 153.261 719.598 154.156 754.253C155.518 807.849 127.02 854.502 99.4558 899.619C96.324 904.734 93.2115 909.829 90.1574 914.905C52.3612 977.796 41.779 1027.42 57.769 1066.61C70.1019 1096.85 99.3973 1121.39 138.127 1133.98C172.967 1145.29 209.713 1146.36 250.66 1146.54C328.042 1146.89 417.563 1145.12 499.438 1119.6C586.274 1092.55 655.642 1039.21 689.781 973.265C714.272 925.95 721.819 873.599 729.814 818.175C734.191 787.857 738.704 756.528 746.271 726.346C768.622 637.162 822.155 553.618 897.028 491.115C971.901 428.593 1063.68 390.827 1155.44 384.74C1247.23 378.653 1343.15 403.993 1425.63 456.072C1508.07 508.151 1572.17 583.897 1606.09 669.347L1588 676.523C1555.59 594.865 1494.22 522.406 1415.18 472.505C1336.17 422.604 1244.33 398.314 1156.66 404.129C1068.97 409.944 981.18 446.134 909.439 506.031C837.698 565.928 786.421 645.836 765.082 731.072C757.767 760.281 753.313 791.124 749.014 820.956C741.136 875.544 733.004 931.979 706.996 982.191C670.484 1052.73 596.934 1109.57 505.177 1138.16C420.656 1164.49 329.423 1166.32 250.524 1165.97C209.479 1165.79 169.524 1164.62 132.058 1152.45C87.8622 1138.1 54.1898 1109.49 39.6977 1073.94C21.2373 1028.69 32.2668 973.382 73.4283 904.87C76.5018 899.755 79.6336 894.621 82.7849 889.468C108.89 846.762 135.871 802.598 134.645 754.739C132.895 686.188 72.6307 632.456 16.8215 605.036C-14.4776 589.653 -48.539 578.432 -81.4721 567.562C-114.308 556.73 -148.272 545.528 -180.155 530.087C-215.344 513.052 -245.885 490.24 -268.488 464.104C-295.099 433.338 -309.358 399.948 -310.875 364.865C-313.599 302.052 -271.387 239.821 -208.225 213.529C-184.784 203.766 -158.737 198.944 -131.873 198.944L-131.854 198.944Z" fill="url(#paint1_linear_0_153)" fill-opacity="0.2"/>
<defs>
<linearGradient id="paint0_linear_0_153" x1="647.546" y1="1166" x2="647.546" y2="8.37987e-05" gradientUnits="userSpaceOnUse">
<stop stop-color="#00ADB5" stop-opacity="0.26"/>
<stop offset="0.442708" stop-color="#222831" stop-opacity="0.47"/>
<stop offset="1" stop-color="#222831" stop-opacity="0"/>
</linearGradient>
<linearGradient id="paint1_linear_0_153" x1="647.546" y1="1166" x2="647.546" y2="8.37987e-05" gradientUnits="userSpaceOnUse">
<stop stop-color="#00ADB5" stop-opacity="0.26"/>
<stop offset="0.442708" stop-color="#222831" stop-opacity="0.47"/>
<stop offset="1" stop-color="#222831" stop-opacity="0"/>
</linearGradient>
</defs>
</svg>
