<svg width="1440" height="905" viewBox="0 0 1440 905" fill="none" xmlns="http://www.w3.org/2000/svg">
<path d="M683.374 905C605.109 905 519.137 888.099 419.17 853.481C371.425 836.95 323.856 817.774 277.862 799.221C217.291 774.793 154.636 749.53 91.32 730.257C-38.6407 690.68 -152.972 684.651 -248.462 712.325L-253.892 693.655C-154.704 664.91 -36.6554 670.959 96.984 711.664C161.118 731.19 224.161 756.609 285.122 781.192C330.902 799.648 378.238 818.727 425.516 835.103C559.583 881.526 667.413 895.412 764.869 878.803C814.444 870.343 882.509 849.008 925.291 795.273C982.593 723.275 970.623 603.94 899.657 539.897C866.043 509.577 820.4 491.373 771.117 488.689C722.419 486.025 674.226 498.53 635.356 523.871L624.71 507.593C713.446 449.715 837.256 457.397 912.698 525.466C949.835 558.975 974.36 608.666 979.985 661.799C985.766 716.449 971.751 768.142 940.531 807.369C893.935 865.909 821.081 888.936 768.159 897.96C740.754 902.627 712.609 904.98 683.374 904.98V905Z" fill="url(#paint0_linear_0_151)" fill-opacity="0.2"/>
<path d="M1448.95 706.057C1412.78 706.057 1375.12 697.305 1340.19 680.075C1290.12 655.378 1243.6 613.625 1201.96 555.984C1078.53 385.181 1052.48 149.717 1135.6 -43.9173L1153.48 -36.2552C1073.01 151.233 1098.22 379.23 1217.73 544.588C1257.51 599.623 1301.61 639.334 1348.8 662.631C1404.73 690.227 1467.91 694.291 1517.81 673.502C1572.7 650.652 1610.85 594.897 1608.49 540.951C1607.17 510.342 1594.49 480.957 1570.83 453.596C1549.94 429.442 1521.56 408.284 1488.73 392.396C1457.99 377.519 1424.67 366.531 1392.42 355.894C1358.84 344.828 1324.14 333.374 1291.63 317.408C1256.58 300.178 1226.23 277.075 1203.86 250.588C1177.97 219.94 1163.83 185.402 1162.94 150.747C1161.57 97.1513 1190.07 50.498 1217.64 5.38089C1220.77 0.266327 1223.88 -4.8288 1226.93 -9.90446C1264.73 -72.7961 1275.31 -122.425 1259.32 -161.611C1246.99 -191.851 1217.69 -216.393 1178.96 -228.975C1144.12 -240.293 1107.38 -241.363 1066.43 -241.538C989.049 -241.888 899.529 -240.118 817.653 -214.604C730.817 -187.553 661.449 -134.21 627.31 -68.2649C602.82 -20.9503 595.272 31.401 587.277 86.825C582.9 117.143 578.387 148.472 570.82 178.654C548.469 267.838 494.936 351.382 420.063 413.885C345.191 476.407 253.414 514.173 161.656 520.26C69.8599 526.347 -26.0605 501.007 -108.539 448.928C-190.979 396.849 -255.075 321.103 -289 235.653L-270.909 228.477C-238.501 310.135 -177.129 382.594 -98.0931 432.495C-19.077 482.396 72.7582 506.686 160.431 500.871C248.123 495.057 335.912 458.866 407.653 398.969C479.393 339.072 530.67 259.164 552.01 173.928C559.324 144.719 563.778 113.876 568.077 84.044C575.956 29.4563 584.087 -26.9789 610.095 -77.1911C646.607 -147.725 720.157 -204.569 811.915 -233.156C896.436 -259.487 987.668 -261.315 1066.57 -260.965C1107.61 -260.79 1147.57 -259.623 1185.03 -247.45C1229.23 -233.098 1262.9 -204.491 1277.39 -168.942C1295.85 -123.689 1284.82 -68.3816 1243.66 0.130188C1240.59 5.24475 1237.46 10.3788 1234.31 15.5322C1208.2 58.2379 1181.22 102.402 1182.45 150.261C1184.2 218.812 1244.46 272.544 1300.27 299.964C1331.57 315.347 1365.63 326.568 1398.56 337.439C1431.4 348.271 1465.36 359.472 1497.25 374.913C1532.44 391.948 1562.98 414.76 1585.58 440.897C1612.19 471.662 1626.45 505.052 1627.97 540.135C1630.69 602.949 1588.48 665.179 1525.32 691.471C1501.88 701.234 1475.83 706.057 1448.96 706.057H1448.95Z" fill="url(#paint1_linear_0_151)" fill-opacity="0.2"/>
<defs>
<linearGradient id="paint0_linear_0_151" x1="669.546" y1="-261" x2="669.546" y2="905" gradientUnits="userSpaceOnUse">
<stop offset="0.276042" stop-color="#00ADB5"/>
<stop offset="0.703125" stop-color="#222831" stop-opacity="0.47"/>
<stop offset="1" stop-color="#222831" stop-opacity="0"/>
</linearGradient>
<linearGradient id="paint1_linear_0_151" x1="669.546" y1="-261" x2="669.546" y2="905" gradientUnits="userSpaceOnUse">
<stop offset="0.276042" stop-color="#00ADB5"/>
<stop offset="0.703125" stop-color="#222831" stop-opacity="0.47"/>
<stop offset="1" stop-color="#222831" stop-opacity="0"/>
</linearGradient>
</defs>
</svg>
