<svg width="134" height="134" viewBox="0 0 134 134" fill="none" xmlns="http://www.w3.org/2000/svg">
<g clip-path="url(#clip0_0_266)">
<path fill-rule="evenodd" clip-rule="evenodd" d="M64.88 118.02C63.7871 118.02 62.9203 117.153 62.9203 116.061V89.9992C62.9203 88.9251 63.7871 88.0394 64.88 88.0394C65.973 88.0394 66.8398 88.9251 66.8398 89.9992V116.061C66.7268 117.153 65.8599 118.02 64.88 118.02Z" fill="#393E46"/>
<path fill-rule="evenodd" clip-rule="evenodd" d="M46.2244 104.283H32.7133C31.6203 104.283 30.7535 103.416 30.7535 102.323C30.7535 101.23 31.6203 100.363 32.7133 100.363H44.3777V81.8209C44.3777 80.7468 45.2445 79.8611 46.3375 79.8611C47.4305 79.8611 48.2973 80.7468 48.2973 81.8209V102.323C48.1842 103.416 47.3174 104.283 46.2244 104.283Z" fill="#393E46"/>
<path fill-rule="evenodd" clip-rule="evenodd" d="M101.4 104.283H87.8886C86.7957 104.283 85.91 103.416 85.91 102.323V81.8209C85.91 80.7468 86.7957 79.8611 87.8886 79.8611C88.9627 79.8611 89.8484 80.7468 89.8484 81.8209V100.363H101.513C102.606 100.363 103.473 101.23 103.473 102.323C103.473 103.416 102.493 104.283 101.4 104.283Z" fill="#393E46"/>
<path fill-rule="evenodd" clip-rule="evenodd" d="M24.5349 112.367C18.976 112.367 14.5099 107.882 14.5099 102.323C14.5099 96.7641 18.976 92.2981 24.5349 92.2981C30.0939 92.2981 34.56 96.7641 34.56 102.323C34.56 107.882 30.0939 112.367 24.5349 112.367ZM24.5349 96.2177C21.1619 96.2177 18.3164 98.95 18.3164 102.436C18.3164 105.809 21.0488 108.655 24.5349 108.655C28.0211 108.655 30.7535 105.922 30.7535 102.436C30.7535 98.95 28.0211 96.2177 24.5349 96.2177Z" fill="#393E46"/>
<path fill-rule="evenodd" clip-rule="evenodd" d="M109.465 112.367C103.906 112.367 99.44 107.882 99.44 102.323C99.44 96.7641 103.906 92.2981 109.465 92.2981C115.024 92.2981 119.509 96.7641 119.509 102.323C119.509 107.882 115.024 112.367 109.465 112.367ZM109.465 96.2177C106.092 96.2177 103.246 98.95 103.246 102.436C103.246 105.809 105.979 108.655 109.465 108.655C112.857 108.655 115.684 105.922 115.684 102.436C115.684 98.95 112.951 96.2177 109.465 96.2177Z" fill="#393E46"/>
<path fill-rule="evenodd" clip-rule="evenodd" d="M64.88 134.057C59.4153 134.057 54.9492 129.591 54.9492 124.032C54.9492 118.567 59.4153 114.101 64.88 114.101C70.439 114.101 74.9051 118.567 74.9051 124.032C74.792 129.591 70.326 134.057 64.88 134.057ZM64.88 118.02C61.4881 118.02 58.7746 120.753 58.7746 124.126C58.7746 127.518 61.4881 130.344 64.88 130.344C68.2531 130.344 71.0986 127.631 71.0986 124.126C70.9855 120.753 68.2531 118.02 64.88 118.02Z" fill="#393E46"/>
<path fill-rule="evenodd" clip-rule="evenodd" d="M124.842 71.5885C123.749 71.5885 122.882 70.7029 122.882 69.6099V51.6327L111.538 50.9732C110.671 50.9732 110.012 50.3136 109.804 49.5598C108.711 44.8677 106.846 40.5147 104.339 36.5763C103.906 35.8225 104.019 34.9369 104.566 34.2962L112.197 25.7787L100.853 14.4534L92.3547 22.0852C91.6951 22.6317 90.8283 22.7259 90.0557 22.2925C86.0231 19.7863 81.6701 17.9395 77.091 16.8466C76.2053 16.6205 75.6777 15.9798 75.6777 15.0941L75.1312 3.76882H58.9819L58.3412 15.0941C58.3412 15.9798 57.6816 16.6205 56.909 16.8466C52.443 17.9395 48.09 19.7863 43.9443 22.2925C43.1717 22.7259 42.3049 22.6317 41.6453 22.0852L33.1467 14.4534L21.8026 25.8917L29.4344 34.4092C29.9809 35.0499 30.0939 35.9356 29.6605 36.6894C27.2673 40.5147 25.4018 44.8677 24.2146 49.6729C23.9885 50.5397 23.3289 51.0862 22.4621 51.0862L11.118 51.7458V69.723C11.118 70.8159 10.2512 71.6828 9.15821 71.6828C8.06525 71.6828 7.19843 70.8159 7.19843 69.723V49.8802C7.19843 48.9003 7.95219 48.0335 9.04514 48.0335L20.7096 47.3739C21.8026 43.2282 23.442 39.4218 25.5148 35.9356L17.6569 27.2108C17.0162 26.4382 17.0162 25.3453 17.7699 24.5915L31.8464 10.515C32.6002 9.76123 33.6932 9.76123 34.4469 10.4208L43.1717 18.2599C46.7709 16.187 50.7093 14.5476 54.6289 13.4735L55.2884 1.7902C55.3826 0.810307 56.1553 -0.0565186 57.1351 -0.0565186H76.8649C77.8447 -0.0565186 78.7304 0.716087 78.7304 1.7902L79.4842 13.4735C83.4037 14.5476 87.3421 16.187 90.9414 18.2599L99.6473 10.4208C100.42 9.76123 101.513 9.76123 102.267 10.515L116.23 24.4784C116.984 25.2322 116.984 26.3251 116.343 27.0977L108.485 35.8225C110.558 39.3087 112.197 43.2282 113.29 47.2609L124.955 47.9204C125.935 48.0335 126.802 48.7872 126.802 49.7671V69.5157C126.802 70.7029 125.935 71.5885 124.842 71.5885Z" fill="#393E46"/>
<path fill-rule="evenodd" clip-rule="evenodd" d="M67.0471 91.9778C49.2772 91.9778 34.7861 77.5809 34.7861 59.6979C34.7861 41.8149 49.2772 27.4181 67.0471 27.4181C84.8359 27.4181 99.327 41.928 99.327 59.6979C99.327 77.4679 84.8359 91.9778 67.0471 91.9778ZM67.0471 31.2434C51.35 31.2434 38.5926 44.0009 38.5926 59.6979C38.5926 75.395 51.35 88.1525 67.0471 88.1525C82.763 88.1525 95.5205 75.395 95.5205 59.6979C95.5205 44.0009 82.763 31.2434 67.0471 31.2434Z" fill="#393E46"/>
</g>
<defs>
<clipPath id="clip0_0_266">
<rect width="134" height="134" fill="white"/>
</clipPath>
</defs>
</svg>
