<svg width="134" height="134" viewBox="0 0 134 134" fill="none" xmlns="http://www.w3.org/2000/svg">
<path d="M67 21.7616C60.889 21.7616 54.9153 23.5735 49.834 26.9683C44.7528 30.3631 40.7922 35.1883 38.453 40.8338C36.1139 46.4794 35.5011 52.6917 36.6924 58.6854C37.8836 64.6792 40.8252 70.1851 45.1454 74.5071C49.4655 78.8292 54.9702 81.7732 60.9634 82.967C66.9566 84.1608 73.1692 83.5508 78.8158 81.2141C84.4623 78.8774 89.2892 74.9189 92.6862 69.8391C96.0832 64.7593 97.8977 58.7864 97.9004 52.6754C97.8898 44.4821 94.6312 36.6273 88.839 30.8325C83.0467 25.0377 75.1933 21.7758 67 21.7616ZM67 79.6764C61.6565 79.6764 56.433 78.0917 51.9902 75.1227C47.5474 72.1537 44.0849 67.9339 42.0407 62.9969C39.9964 58.0598 39.4622 52.6275 40.5056 47.3868C41.5491 42.1462 44.1233 37.3327 47.9027 33.5552C51.682 29.7777 56.4968 27.2059 61.738 26.165C66.9791 25.1242 72.4112 25.6611 77.3472 27.7078C82.2832 29.7545 86.5014 33.2191 89.4682 37.6634C92.4349 42.1076 94.017 47.3319 94.0144 52.6754C94.0038 59.8356 91.1538 66.6992 86.0895 71.761C81.0252 76.8227 74.1602 79.6693 67 79.6764Z" fill="#393E46"/>
<path d="M110.813 40.2046C109.228 39.6458 107.856 38.6129 106.884 37.2474C105.912 35.8819 105.389 34.2507 105.385 32.5773C105.391 31.3684 105.664 30.1757 106.187 29.0843C107.105 27.2386 107.527 25.1876 107.411 23.1312C107.296 21.0749 106.647 19.0834 105.528 17.351C103.941 14.7773 101.447 12.8859 98.5324 12.0473C95.6182 11.2087 92.4945 11.4833 89.773 12.8174C88.7427 13.3025 87.622 13.5683 86.4826 13.5977C85.3432 13.6272 84.2102 13.4197 83.1559 12.9884C82.0929 12.5513 81.1364 11.8924 80.3507 11.0563C79.565 10.2201 78.9685 9.22611 78.6013 8.14114C77.7475 5.75866 76.1742 3.69739 74.0972 2.23988C72.0203 0.78238 69.5412 0 67 0C64.4588 0 61.9797 0.78238 59.9028 2.23988C57.8258 3.69739 56.2525 5.75866 55.3987 8.14114C55.022 9.21626 54.4225 10.2006 53.6391 11.0303C52.8557 11.86 51.9059 12.5166 50.8513 12.9575C49.7966 13.3984 48.6606 13.6137 47.517 13.5896C46.3734 13.5655 45.2476 13.3024 44.2127 12.8174C42.3535 11.9099 40.2908 11.4948 38.2235 11.6122C36.1562 11.7296 34.1542 12.3754 32.4108 13.4874C30.647 14.5862 29.1888 16.1085 28.1702 17.9146C27.1517 19.7207 26.6054 21.7525 26.5815 23.8236C26.5887 25.6625 27.0147 27.4758 27.8276 29.1271C28.3402 30.2212 28.6089 31.4128 28.6153 32.62C28.6131 34.2973 28.0904 35.933 27.1188 37.3034C26.1471 38.6738 24.774 39.7119 23.187 40.2759C20.792 41.1223 18.719 42.6862 17.2531 44.7527C15.7871 46.8192 15 49.287 15 51.8168C15 54.3466 15.7871 56.8143 17.2531 58.8808C18.719 60.9474 20.792 62.5113 23.187 63.3576C24.7739 63.926 26.1464 64.9672 27.1177 66.3397C28.089 67.7121 28.6119 69.349 28.6153 71.0278C28.6133 72.2218 28.3442 73.4004 27.8276 74.4779C26.9076 76.325 26.4835 78.3776 26.5964 80.4362C26.7093 82.4947 27.3555 84.4891 28.4721 86.2255C29.3616 87.6239 30.5209 88.8329 31.8829 89.7824C33.2449 90.7319 34.7825 91.4031 36.4068 91.7571L24.1753 121.326C24.0261 121.684 23.9806 122.077 24.0438 122.46C24.1071 122.843 24.2767 123.201 24.5334 123.493C24.7932 123.779 25.1268 123.989 25.498 124.099C25.8692 124.21 26.2638 124.217 26.6388 124.12L40.9614 120.242L48.3519 132.959C48.5327 133.277 48.7951 133.54 49.1123 133.723C49.4295 133.906 49.79 134.002 50.1566 134H50.2855C50.6739 133.972 51.0469 133.837 51.363 133.611C51.6791 133.384 51.9258 133.075 52.0758 132.717L64.2787 103.177C65.2172 103.398 66.1787 103.508 67.1432 103.505C67.9806 103.506 68.8159 103.42 69.6354 103.248L81.6521 132.717C81.8021 133.075 82.0488 133.384 82.3649 133.611C82.681 133.837 83.054 133.972 83.4424 134H83.5856C83.9519 134 84.3118 133.904 84.6287 133.721C84.9457 133.539 85.2084 133.276 85.3903 132.959L92.7808 120.242L107.103 124.12C107.486 124.228 107.891 124.224 108.272 124.111C108.653 123.997 108.993 123.778 109.253 123.479C109.513 123.179 109.682 122.813 109.74 122.421C109.798 122.03 109.743 121.63 109.581 121.269L97.2781 91.7429C100.1 91.2102 102.65 89.7224 104.495 87.5319C106.341 85.3415 107.369 82.5831 107.404 79.7244C107.409 77.8858 106.987 76.071 106.172 74.4209C105.657 73.3322 105.383 72.1457 105.37 70.9422C105.376 69.2637 105.901 67.6277 106.875 66.2576C107.849 64.8874 109.225 63.8498 110.813 63.2864C113.208 62.44 115.281 60.8761 116.747 58.8096C118.213 56.743 119 54.2753 119 51.7455C119 49.2157 118.213 46.748 116.747 44.6814C115.281 42.6149 113.208 41.051 110.813 40.2046ZM49.8128 127.242L43.74 116.778C43.5114 116.381 43.1562 116.071 42.7306 115.898C42.305 115.725 41.8336 115.698 41.3911 115.823L29.6752 119.002L40.8612 91.7999C42.0211 91.6007 43.1486 91.2458 44.2127 90.7449C45.1153 90.3271 46.0851 90.0712 47.0772 89.9893C47.3061 89.9747 47.5358 89.9747 47.7647 89.9893C49.4458 89.9932 51.0846 90.5146 52.4564 91.482C53.8282 92.4493 54.8659 93.8152 55.4273 95.3926C56.3187 97.9818 58.0722 100.19 60.3973 101.651L49.8128 127.242ZM104.081 119.002L92.3797 115.823C91.9351 115.7 91.4623 115.727 91.0349 115.9C90.6074 116.073 90.2494 116.381 90.0165 116.778L83.9007 127.242L73.3879 101.765C75.8223 100.305 77.6628 98.0393 78.587 95.3641C78.9332 94.3691 79.468 93.4496 80.1625 92.6553C80.9266 91.79 81.8674 91.097 82.9221 90.6225C83.9767 90.148 85.1209 89.903 86.2783 89.9038H86.8225C87.8458 89.9743 88.8466 90.2354 89.773 90.6736C90.7298 91.1268 91.7404 91.4573 92.7808 91.6573L104.081 119.002ZM109.452 59.3943C107.06 60.2473 104.989 61.8136 103.523 63.8801C102.057 65.9465 101.267 68.4125 101.26 70.9422C101.272 72.7666 101.683 74.5665 102.463 76.2173C103.001 77.3089 103.28 78.5086 103.279 79.7244C103.267 80.8501 103.019 81.9608 102.553 82.9866C102.088 84.0123 101.413 84.9307 100.572 85.6838C99.7568 86.4358 98.7936 87.0115 97.7435 87.3747C96.6934 87.7378 95.5791 87.8805 94.4708 87.7938C93.4751 87.7035 92.5043 87.433 91.6063 86.9954C89.1822 85.8463 86.4481 85.5141 83.8175 86.0491C81.1869 86.5842 78.8028 87.9573 77.0259 89.9608C75.9998 91.1419 75.1989 92.4995 74.6626 93.9669C74.2918 95.0694 73.681 96.0768 72.8739 96.9172C72.0668 97.7575 71.0832 98.4102 69.9934 98.8285C67.9815 99.5686 65.7643 99.533 63.7774 98.7287C62.7322 98.298 61.7922 97.6485 61.0212 96.8245C60.2502 96.0005 59.6662 95.0211 59.3087 93.9527C58.452 91.5749 56.88 89.5177 54.8067 88.061C52.7334 86.6044 50.2595 85.8191 47.7217 85.8121C47.3354 85.7886 46.9479 85.7886 46.5616 85.8121C45.1325 85.9527 43.7378 86.3336 42.4367 86.9384C41.4257 87.4173 40.3316 87.698 39.2141 87.7652H38.8846C37.5018 87.7455 36.1462 87.38 34.9424 86.7023C33.7386 86.0247 32.7252 85.0567 31.9955 83.8874C31.2605 82.7395 30.8372 81.4216 30.7669 80.0622C30.6966 78.7029 30.9817 77.3486 31.5944 76.1317C32.326 74.5823 32.7242 72.8979 32.7637 71.1864C32.8032 69.4748 32.4829 67.774 31.8235 66.1928C31.1641 64.6117 30.1802 63.1851 28.9346 62.0045C27.6891 60.8239 26.2095 59.9154 24.5906 59.3372C23.0078 58.7718 21.639 57.7336 20.6713 56.3646C19.7036 54.9955 19.1843 53.3624 19.1843 51.6885C19.1843 50.0145 19.7036 48.3814 20.6713 47.0124C21.639 45.6433 23.0078 44.6051 24.5906 44.0397C26.984 43.1897 29.0547 41.6236 30.5189 39.5562C31.983 37.4888 32.7689 35.0212 32.7689 32.4917C32.7645 30.6726 32.3587 28.8767 31.5801 27.231C30.6856 25.4344 30.5044 23.3682 31.0725 21.4445C31.6406 19.5208 32.9163 17.881 34.6451 16.852C35.7962 16.1238 37.1158 15.702 38.4776 15.6271C39.8394 15.5522 41.1977 15.8267 42.4223 16.4243C43.9794 17.1576 45.6733 17.5585 47.3953 17.6012C49.1173 17.6439 50.8292 17.3274 52.421 16.6722C54.0127 16.0169 55.4491 15.0374 56.6378 13.7965C57.8265 12.5556 58.7412 11.0808 59.3231 9.46702C59.8875 7.88991 60.9284 6.52528 62.3028 5.56032C63.6773 4.59537 65.3181 4.07736 67 4.07736C68.6819 4.07736 70.3227 4.59537 71.6971 5.56032C73.0716 6.52528 74.1125 7.88991 74.6769 9.46702C75.2541 11.0811 76.1647 12.5569 77.3501 13.7992C78.5354 15.0414 79.9692 16.0226 81.5588 16.6795C83.1485 17.3364 84.8589 17.6543 86.5796 17.6128C88.3003 17.5713 89.9931 17.1713 91.549 16.4386C93.3566 15.5508 95.4334 15.3717 97.3675 15.9369C99.3015 16.502 100.952 17.7701 101.99 19.4895C102.727 20.6361 103.153 21.9534 103.226 23.3128C103.299 24.6722 103.016 26.0271 102.406 27.2452C101.628 28.8914 101.223 30.687 101.217 32.506C101.221 35.0347 102.01 37.5004 103.477 39.5652C104.943 41.63 107.016 43.1929 109.409 44.0397C110.992 44.6051 112.361 45.6433 113.329 47.0124C114.296 48.3814 114.816 50.0145 114.816 51.6885C114.816 53.3624 114.296 54.9955 113.329 56.3646C112.361 57.7336 110.992 58.7718 109.409 59.3372L109.452 59.3943Z" fill="#393E46"/>
<path d="M68.742 29.48C68.5815 29.155 68.3333 28.8815 68.0254 28.6902C67.7176 28.4989 67.3624 28.3976 67 28.3976C66.6376 28.3976 66.2824 28.4989 65.9746 28.6902C65.6667 28.8815 65.4185 29.155 65.258 29.48L58.96 42.3976L44.756 44.4612C44.3975 44.5154 44.0611 44.6682 43.7843 44.9025C43.5076 45.1368 43.3014 45.4435 43.1888 45.7881C43.0763 46.1328 43.0617 46.502 43.1468 46.8545C43.2318 47.207 43.4132 47.529 43.6706 47.7844L53.9484 57.8076L51.4694 71.9445C51.4066 72.3031 51.4457 72.6722 51.5825 73.0096C51.7192 73.347 51.9479 73.6392 52.2427 73.8529C52.5374 74.0666 52.8862 74.1932 53.2494 74.2183C53.6126 74.2434 53.9755 74.1659 54.2968 73.9948L67 67.2948L79.7032 73.9948C80.0241 74.1622 80.3854 74.2367 80.7464 74.2098C81.1073 74.1829 81.4536 74.0557 81.7462 73.8425C82.0387 73.6294 82.2659 73.3388 82.4022 73.0034C82.5384 72.6681 82.5782 72.3013 82.5172 71.9445L80.0918 57.8076L90.3696 47.7844C90.6322 47.5322 90.818 47.2109 90.9058 46.8576C90.9935 46.5043 90.9795 46.1334 90.8654 45.7878C90.7534 45.4413 90.5477 45.1327 90.2709 44.8962C89.9941 44.6596 89.6572 44.5044 89.2976 44.4478L75.04 42.3976L68.742 29.48ZM76.648 55.677C76.4224 55.896 76.2534 56.1665 76.1553 56.4652C76.0573 56.764 76.0332 57.0821 76.0852 57.3922L78.0148 68.6616L67.8978 63.3016C67.6185 63.1559 67.3083 63.0799 66.9933 63.0799C66.6784 63.0799 66.3681 63.1559 66.0888 63.3016L55.9718 68.6616L57.9148 57.3922C57.9668 57.0821 57.9427 56.764 57.8447 56.4652C57.7467 56.1665 57.5776 55.896 57.352 55.677L49.1646 47.637L60.4742 45.9888C60.7844 45.9414 61.0788 45.8206 61.3328 45.6365C61.5869 45.4523 61.7933 45.2102 61.9348 44.9302L67 34.84L72.0518 45.091C72.1946 45.3727 72.4031 45.6159 72.6596 45.8001C72.9162 45.9843 73.2132 46.1042 73.5258 46.1496L84.822 47.7978L76.648 55.677Z" fill="#393E46"/>
</svg>
