<svg width="80" height="80" viewBox="0 0 80 80" fill="none" xmlns="http://www.w3.org/2000/svg">
<path d="M1021.67 318.875C1018.82 318.875 1016.42 317.933 1014.46 316.05C1012.68 314.167 1011.79 311.735 1011.79 308.754C1011.79 303.89 1013.48 299.967 1016.86 296.986C1020.42 293.847 1024.6 292.278 1029.41 292.278C1038.66 292.278 1043.29 297.064 1043.29 306.635C1043.29 319.188 1039.64 328.76 1032.34 335.35C1025.05 341.783 1016.15 345 1005.65 345L1007.25 335.585C1019.35 335.272 1025.94 329.466 1027.01 318.168L1022.2 318.875H1021.67ZM1064.38 318.875C1061.53 318.875 1059.13 317.933 1057.17 316.05C1055.39 314.167 1054.5 311.735 1054.5 308.754C1054.5 303.89 1056.19 299.967 1059.57 296.986C1063.13 293.847 1067.31 292.278 1072.12 292.278C1081.37 292.278 1086 297.064 1086 306.635C1086 319.188 1082.35 328.76 1075.06 335.35C1067.76 341.783 1058.86 345 1048.36 345L1049.96 335.585C1062.06 335.272 1068.65 329.466 1069.72 318.168L1064.91 318.875H1064.38Z" fill="#00ADB5"/>
</svg>
