<svg width="80" height="80" viewBox="0 0 80 80" fill="none" xmlns="http://www.w3.org/2000/svg">
<path d="M21.6223 26.1255C24.4697 26.1255 26.7832 27.0669 28.5628 28.9499C30.5204 30.8328 31.4992 33.2649 31.4992 36.2462C31.4992 41.1104 29.7196 45.1116 26.1603 48.2498C22.7791 51.2311 18.686 52.7217 13.881 52.7217C4.627 52.7217 0 47.9359 0 38.3644C0 25.8116 3.64821 16.3186 10.9446 9.88529C18.2411 3.29507 27.1391 -3.82062e-05 37.6389 -3.82062e-05L36.0372 9.41456C23.9358 9.72838 17.3512 15.534 16.2835 26.8316L21.0884 26.1255H21.6223ZM64.3331 26.1255C67.1805 26.1255 69.494 27.0669 71.2736 28.9499C73.2311 30.8328 74.2099 33.2649 74.2099 36.2462C74.2099 41.1104 72.4303 45.1116 68.8711 48.2498C65.4898 51.2311 61.3967 52.7217 56.5918 52.7217C47.3378 52.7217 42.7108 47.9359 42.7108 38.3644C42.7108 25.8116 46.359 16.3186 53.6554 9.88529C60.9518 3.29507 69.8499 -3.82062e-05 80.3496 -3.82062e-05L78.748 9.41456C66.6466 9.72838 60.062 15.534 58.9942 26.8316L63.7992 26.1255H64.3331Z" fill="#00ADB5"/>
</svg>
