<svg width="100" height="108" viewBox="0 0 100 108" fill="none" xmlns="http://www.w3.org/2000/svg">
<g clip-path="url(#clip0_0_249)">
<path d="M50.7532 81.7854H15.4696V30.1702L45.4226 4.38635L74.6569 29.1134V61.5204C74.6569 62.4376 75.408 63.182 76.336 63.182C77.264 63.182 78.0151 62.4376 78.0151 61.5204V31.9536L88.9416 41.1955C89.2584 41.4625 89.6457 41.5932 90.0319 41.5932C90.5054 41.5932 90.9767 41.3949 91.3091 41.0116C91.9125 40.3138 91.8285 39.2658 91.1233 38.6688L46.5039 0.930194C45.8703 0.394047 44.9379 0.399585 44.311 0.939056L0.624059 38.5447C-0.075568 39.1473 -0.149448 40.1963 0.459507 40.8887C1.06846 41.581 2.12742 41.653 2.82816 41.0515L12.1114 33.0603V83.4459C12.1114 84.3632 12.8625 85.1076 13.7905 85.1076H50.7532C51.6811 85.1076 52.4323 84.3632 52.4323 83.4459C52.4323 82.5287 51.6811 81.7854 50.7532 81.7854Z" fill="#393E46"/>
<path d="M97.2578 99.3264L58.8746 56.1987C59.3436 51.6691 58.1291 48.0047 55.297 45.5898C51.8526 42.6532 48.6858 43.2115 43.8947 44.0534C43.2668 44.1642 42.6018 44.2816 41.8921 44.399C40.0843 44.6992 38.5597 42.9357 36.903 40.7756C35.7298 39.2458 34.7156 37.9265 33.1317 38.3386C31.5891 38.7418 31.2298 40.4831 31.0138 42.0827C30.0589 49.1678 30.5156 59.0112 34.9406 63.4367C38.5608 67.0701 43.56 67.5796 46.0787 67.5796C46.3888 67.5796 46.644 67.5708 46.8712 67.5608L90.8649 105.654C92.2272 106.984 93.9164 107.746 95.5037 107.745C95.516 107.745 95.5294 107.745 95.5418 107.745C96.6354 107.738 97.6216 107.345 98.3212 106.641C100.089 104.857 99.6186 101.654 97.2578 99.3264ZM34.2959 42.8737C35.8944 44.9562 38.5429 48.326 42.444 47.6768C43.166 47.5583 43.8433 47.4387 44.4813 47.3268C49.2265 46.4904 50.9772 46.2933 53.1041 48.1088C55.1145 49.8236 55.9194 52.4745 55.5287 55.9749L46.7324 64.2387C45.1821 64.3051 40.4481 64.2309 37.3294 61.1027C34.0641 57.8337 33.4709 49.4415 34.2959 42.8737ZM57.0253 59.1497L60.5156 63.0711L54.1071 69.4107L49.9418 65.8039L57.0253 59.1497ZM95.9246 104.312C95.8552 104.381 95.6929 104.415 95.5048 104.421C94.9854 104.421 94.0809 104.124 93.1496 103.22L56.6403 71.6041L62.7399 65.5702L94.7761 101.565C94.803 101.595 94.8309 101.625 94.86 101.653C96.0108 102.771 96.2056 104.03 95.9246 104.312Z" fill="#393E46"/>
</g>
<defs>
<clipPath id="clip0_0_249">
<rect width="100" height="107.5" fill="white"/>
</clipPath>
</defs>
</svg>
