<svg width="100" height="102" viewBox="0 0 100 102" fill="none" xmlns="http://www.w3.org/2000/svg">
<g clip-path="url(#clip0_0_227)">
<path d="M60.8452 43.8387V66.2542C60.8452 66.8957 61.0981 67.511 61.5482 67.9647C61.9983 68.4183 62.6087 68.6731 63.2453 68.6731C63.8818 68.6731 64.4923 68.4183 64.9424 67.9647C65.3925 67.511 65.6453 66.8957 65.6453 66.2542V38.001C65.6736 37.4483 65.4903 36.9057 65.1333 36.4851C64.9098 36.1972 64.6228 35.9657 64.2951 35.8089C63.9674 35.6522 63.6079 35.5745 63.2453 35.582H35.2128C34.5763 35.582 33.9658 35.8369 33.5157 36.2905C33.0656 36.7442 32.8127 37.3594 32.8127 38.001C32.8127 38.6425 33.0656 39.2578 33.5157 39.7114C33.9658 40.1651 34.5763 40.4199 35.2128 40.4199H57.6132L31.5967 66.6735H2.79622C2.16227 66.6818 1.55661 66.9394 1.1083 67.3912C0.65999 67.8431 0.404467 68.4535 0.396179 69.0924V98.926C0.404467 99.565 0.65999 100.175 1.1083 100.627C1.55661 101.079 2.16227 101.337 2.79622 101.345H32.5567C33.1907 101.337 33.7964 101.079 34.2447 100.627C34.693 100.175 34.9485 99.565 34.9568 98.926V69.8987L60.8452 43.8387ZM30.1567 96.5071H5.19626V71.3501H30.1567V96.5071Z" fill="#393E46"/>
<path d="M97.6941 -0.250732H2.7693C2.14246 -0.242473 1.5436 0.0121731 1.10031 0.458946C0.657031 0.905719 0.404374 1.5093 0.396179 2.14107V54.7608C0.396179 55.3952 0.646202 56.0035 1.09125 56.4521C1.53629 56.9006 2.13991 57.1526 2.7693 57.1526C3.39869 57.1526 4.00231 56.9006 4.44735 56.4521C4.8924 56.0035 5.14242 55.3952 5.14242 54.7608V4.53288H95.321V95.4215H45.4855C44.8561 95.4215 44.2525 95.6735 43.8074 96.1221C43.3624 96.5706 43.1124 97.179 43.1124 97.8134C43.1124 98.4477 43.3624 99.0561 43.8074 99.5046C44.2525 99.9532 44.8561 100.205 45.4855 100.205H97.6941C98.321 100.197 98.9198 99.9423 99.3631 99.4955C99.8064 99.0487 100.059 98.4451 100.067 97.8134V2.14107C100.059 1.5093 99.8064 0.905719 99.3631 0.458946C98.9198 0.0121731 98.321 -0.242473 97.6941 -0.250732Z" fill="#393E46"/>
</g>
<defs>
<clipPath id="clip0_0_227">
<rect width="100" height="101.266" fill="white"/>
</clipPath>
</defs>
</svg>
