<svg width="100" height="100" viewBox="0 0 100 100" fill="none" xmlns="http://www.w3.org/2000/svg">
<path d="M88.2983 32H80.964V31.3333C80.964 14.056 66.9063 0 49.6269 0C32.3474 0 18.2897 14.056 18.2897 31.3333V32H10.9555C9.85133 32 8.95522 32.896 8.95522 34V98C8.95522 99.104 9.85133 100 10.9555 100H88.2983C89.4024 100 90.2985 99.104 90.2985 98V34C90.2985 32.896 89.4024 32 88.2983 32ZM22.2902 31.3333C22.2902 16.2613 34.553 4 49.6269 4C64.7007 4 76.9635 16.2613 76.9635 31.3333V32H22.2902V31.3333ZM86.298 96H12.9557V36H86.298V96Z" fill="#393E46"/>
</svg>
