<svg width="100" height="101" viewBox="0 0 100 101" fill="none" xmlns="http://www.w3.org/2000/svg">
<path d="M99.1088 71.8811C98.2196 70.3443 96.7577 69.2223 95.0431 68.7607C93.3285 68.2991 91.501 68.5353 89.9603 69.418L73.6237 78.8514C72.7316 77.5146 71.387 76.5448 69.837 76.1202L44.8377 69.4348C42.9139 68.9157 40.889 68.8983 38.9566 69.3845L30.1599 71.5795V68.6975C30.1599 68.2532 29.9833 67.8269 29.6691 67.5127C29.355 67.1986 28.9287 67.022 28.4844 67.022H15.08C14.6356 67.022 14.2093 67.1986 13.8952 67.5127C13.581 67.8269 13.4044 68.2532 13.4044 68.6975V70.3731H1.67555C1.23116 70.3731 0.804985 70.5497 0.490752 70.8638C0.176536 71.178 0 71.6043 0 72.0486V95.5063C0 95.9507 0.176536 96.377 0.490752 96.6911C0.804985 97.0053 1.23116 97.1819 1.67555 97.1819H13.4044V98.8574C13.4044 99.3018 13.581 99.7281 13.8952 100.042C14.2093 100.356 14.6356 100.533 15.08 100.533H28.4844C28.9287 100.533 29.355 100.356 29.6691 100.042C29.9833 99.7281 30.1599 99.3018 30.1599 98.8574V96.5452L32.3214 97.6175C33.9508 98.4287 35.7455 98.8529 37.5658 98.8574H62.6488C64.7088 98.862 66.7328 98.3182 68.5133 97.2824L96.6625 81.0296C98.1958 80.1368 99.3137 78.6738 99.772 76.9597C100.23 75.2457 99.992 73.4199 99.1088 71.8811ZM13.4044 93.8308H3.3511V73.7242H13.4044V93.8308ZM26.8088 97.1819H16.7555V70.3731H26.8088V97.1819ZM94.987 78.1309L66.8377 94.3837C65.5646 95.1205 64.1196 95.5077 62.6488 95.5063H37.5658C36.2624 95.509 34.9766 95.2047 33.8126 94.6183L30.1599 92.7919V75.0311L39.7608 72.6351C41.1425 72.2857 42.5907 72.2973 43.9664 72.6686L68.9657 79.3708C69.6089 79.5378 70.1875 79.8931 70.6275 80.391C71.0673 80.889 71.3486 81.5071 71.4349 82.1659C71.5214 82.8248 71.4091 83.4945 71.1124 84.089C70.8158 84.6836 70.3483 85.1761 69.7699 85.5033C69.3923 85.726 68.9737 85.8706 68.5389 85.9281C68.1043 85.9857 67.6624 85.9552 67.2398 85.8384L47.2505 80.4766C46.8194 80.361 46.3601 80.4215 45.9738 80.6447C45.5872 80.8677 45.3052 81.2352 45.1896 81.6663C45.074 82.0974 45.1345 82.5567 45.3577 82.9431C45.5807 83.3296 45.9481 83.6116 46.3792 83.7272L66.3686 89.0722C66.9369 89.2252 67.5225 89.3041 68.1111 89.3068C69.2835 89.3085 70.4348 88.996 71.4455 88.402C72.2114 87.9645 72.8826 87.3794 73.4204 86.6805C73.9583 85.9815 74.3521 85.1828 74.5788 84.3304C74.7646 83.5918 74.8269 82.8274 74.7631 82.0684L91.6359 72.3335C92.4058 71.906 93.3116 71.7948 94.1621 72.023C95.0124 72.2514 95.741 72.8013 96.1934 73.5566C96.6384 74.3235 96.7612 75.2355 96.5352 76.0929C96.309 76.9503 95.7523 77.6832 94.987 78.1309Z" fill="#393E46"/>
<path d="M52.8924 95.5064C53.3367 95.5064 53.763 95.3298 54.0772 95.0156C54.3913 94.7015 54.5679 94.2752 54.5679 93.8308V92.1553C54.5679 91.7109 54.3913 91.2847 54.0772 90.9705C53.763 90.6563 53.3367 90.4797 52.8924 90.4797C52.448 90.4797 52.0218 90.6563 51.7076 90.9705C51.3934 91.2847 51.2168 91.7109 51.2168 92.1553V93.8308C51.2168 94.2752 51.3934 94.7015 51.7076 95.0156C52.0218 95.3298 52.448 95.5064 52.8924 95.5064Z" fill="#393E46"/>
<path d="M73.3991 25.1332H67.1158L66.8142 24.4295L71.2712 19.9893C71.5852 19.6729 71.7613 19.2453 71.7613 18.7996C71.7613 18.3539 71.5852 17.9263 71.2712 17.61L64.1669 10.5056C63.8505 10.1917 63.4229 10.0156 62.9772 10.0156C62.5315 10.0156 62.1039 10.1917 61.7876 10.5056L57.3474 14.9626L56.6436 14.661V8.3777C56.6436 7.93331 56.467 7.50713 56.1529 7.1929C55.8387 6.87868 55.4124 6.70215 54.9681 6.70215H44.9148C44.4704 6.70215 44.0442 6.87868 43.73 7.1929C43.4158 7.50713 43.2392 7.93331 43.2392 8.3777V14.661L42.5355 14.9626L38.0953 10.5056C37.7789 10.1917 37.3513 10.0156 36.9056 10.0156C36.4599 10.0156 36.0323 10.1917 35.716 10.5056L28.6117 17.61C28.2977 17.9263 28.1216 18.3539 28.1216 18.7996C28.1216 19.2453 28.2977 19.6729 28.6117 19.9893L33.0686 24.4295L32.767 25.1332H26.4837C26.0394 25.1332 25.6131 25.3098 25.2989 25.624C24.9848 25.9381 24.8082 26.3644 24.8082 26.8088V36.8621C24.8082 37.3064 24.9848 37.7327 25.2989 38.0468C25.6131 38.361 26.0394 38.5376 26.4837 38.5376H32.767L33.0686 39.2413L28.6117 43.6815C28.303 44.0011 28.1291 44.427 28.1258 44.8712C28.1323 45.3147 28.3057 45.7396 28.6117 46.0608L35.716 53.1652C36.0355 53.4738 36.4615 53.6477 36.9056 53.6511C37.3492 53.6445 37.7741 53.4711 38.0953 53.1652L42.5355 48.7082L43.2392 49.0098V55.2931C43.2392 55.7375 43.4158 56.1637 43.73 56.4779C44.0442 56.7921 44.4704 56.9687 44.9148 56.9687H54.9681C55.4124 56.9687 55.8387 56.7921 56.1529 56.4779C56.467 56.1637 56.6436 55.7375 56.6436 55.2931V49.0098L57.3474 48.7082L61.7876 53.1652C62.1116 53.4641 62.5364 53.6301 62.9772 53.6301C63.418 53.6301 63.8428 53.4641 64.1669 53.1652L71.2712 46.0608C71.5771 45.7396 71.7506 45.3147 71.7571 44.8712C71.7537 44.427 71.5798 44.0011 71.2712 43.6815L66.8142 39.2413L67.1158 38.5376H73.3991C73.8435 38.5376 74.2697 38.361 74.5839 38.0468C74.8981 37.7327 75.0747 37.3064 75.0747 36.8621V26.8088C75.0747 26.3644 74.8981 25.9381 74.5839 25.624C74.2697 25.3098 73.8435 25.1332 73.3991 25.1332ZM71.7236 35.1865H65.9262C65.5728 35.1868 65.2286 35.2988 64.9428 35.5064C64.6569 35.714 64.444 36.0067 64.3344 36.3426C64.0754 37.1844 63.7329 37.9982 63.3123 38.7722C63.1414 39.0915 63.0771 39.4572 63.1282 39.8157C63.1794 40.1745 63.3437 40.5072 63.5972 40.7661L67.719 44.8712L62.9772 49.613L58.8721 45.4911C58.6132 45.2376 58.2805 45.0734 57.9217 45.0222C57.5632 44.9711 57.1976 45.0354 56.8782 45.2063C56.1043 45.6269 55.2905 45.9693 54.4487 46.2284C54.1127 46.338 53.82 46.5509 53.6124 46.8368C53.4048 47.1226 53.2929 47.4668 53.2925 47.8202V53.6176H46.5903V47.8202C46.59 47.4668 46.4781 47.1226 46.2705 46.8368C46.0629 46.5509 45.7701 46.338 45.4342 46.2284C44.5924 45.9693 43.7786 45.6269 43.0046 45.2063C42.6853 45.0354 42.3197 44.9711 41.9611 45.0222C41.6024 45.0734 41.2696 45.2376 41.0107 45.4911L36.9056 49.613L32.1638 44.8712L36.2857 40.7661C36.5392 40.5072 36.7034 40.1745 36.7547 39.8157C36.8058 39.4572 36.7414 39.0915 36.5705 38.7722C36.15 37.9982 35.8075 37.1844 35.5484 36.3426C35.4389 36.0067 35.2259 35.714 34.9401 35.5064C34.6542 35.2988 34.31 35.1868 33.9567 35.1865H28.1593V28.4843H33.9567C34.31 28.484 34.6542 28.372 34.9401 28.1644C35.2259 27.9568 35.4389 27.6641 35.5484 27.3282C35.8075 26.4864 36.15 25.6726 36.5705 24.8986C36.7414 24.5793 36.8058 24.2137 36.7547 23.8551C36.7034 23.4964 36.5392 23.1636 36.2857 22.9047L32.1638 18.7996L36.9056 14.0578L41.0107 18.1797C41.2696 18.4332 41.6024 18.5974 41.9611 18.6487C42.3197 18.6998 42.6853 18.6354 43.0046 18.4645C43.7786 18.044 44.5924 17.7015 45.4342 17.4424C45.7701 17.3328 46.0629 17.1199 46.2705 16.834C46.4781 16.5482 46.59 16.204 46.5903 15.8507V10.0532H53.2925V15.8507C53.2929 16.204 53.4048 16.5482 53.6124 16.834C53.82 17.1199 54.1127 17.3328 54.4487 17.4424C55.2905 17.7015 56.1043 18.044 56.8782 18.4645C57.1976 18.6354 57.5632 18.6998 57.9217 18.6487C58.2805 18.5974 58.6132 18.4332 58.8721 18.1797L62.9772 14.0578L67.719 18.7996L63.5972 22.9047C63.3437 23.1636 63.1794 23.4964 63.1282 23.8551C63.0771 24.2137 63.1414 24.5793 63.3123 24.8986C63.7329 25.6726 64.0754 26.4864 64.3344 27.3282C64.444 27.6641 64.6569 27.9568 64.9428 28.1644C65.2286 28.372 65.5728 28.484 65.9262 28.4843H71.7236V35.1865Z" fill="#393E46"/>
<path d="M59.3195 31.6605C59.3195 29.6721 58.7299 27.7284 57.6252 26.0752C56.5205 24.4219 54.9505 23.1334 53.1134 22.3724C51.2763 21.6115 49.255 21.4125 47.3049 21.8004C45.3548 22.1882 43.5634 23.1457 42.1575 24.5518C40.7514 25.9577 39.794 27.7491 39.4061 29.6992C39.0182 31.6492 39.2172 33.6706 39.9781 35.5077C40.7391 37.3448 42.0276 38.9148 43.6809 40.0194C45.3342 41.1241 47.2778 41.7138 49.2662 41.7138C51.9316 41.7111 54.4872 40.6511 56.372 38.7663C58.2568 36.8815 59.3168 34.3259 59.3195 31.6605ZM42.564 31.6605C42.564 30.3349 42.9571 29.0391 43.6935 27.9369C44.43 26.8347 45.4768 25.9757 46.7014 25.4685C47.9261 24.9611 49.2735 24.8284 50.5738 25.0871C51.8738 25.3456 53.068 25.984 54.0053 26.9213C54.9426 27.8586 55.581 29.0528 55.8395 30.3529C56.0982 31.6531 55.9655 33.0006 55.4582 34.2252C54.951 35.4499 54.0919 36.4968 52.9898 37.2332C51.8876 37.9696 50.5917 38.3627 49.2662 38.3627C47.4886 38.3627 45.7839 37.6566 44.5271 36.3996C43.2701 35.1428 42.564 33.4381 42.564 31.6605Z" fill="#393E46"/>
<path d="M87.9289 35.1866H84.5778C84.5778 25.8546 80.8706 16.9046 74.2718 10.3059C67.6732 3.70714 58.7232 0 49.3912 0C40.0593 0 31.1093 3.70714 24.5106 10.3059C17.9118 16.9046 14.2047 25.8546 14.2047 35.1866H10.8536C8.18726 35.1866 5.63017 36.2457 3.74481 38.1312C1.85945 40.0165 0.800262 42.5736 0.800262 45.2399C0.800262 47.9062 1.85945 50.4632 3.74481 52.3486C5.63017 54.2341 8.18726 55.2932 10.8536 55.2932H19.2313C19.6757 55.2932 20.1019 55.1166 20.4161 54.8024C20.7303 54.4882 20.9069 54.062 20.9069 53.6176V36.8621C20.9069 36.4178 20.7303 35.9915 20.4161 35.6773C20.1019 35.3632 19.6757 35.1866 19.2313 35.1866H17.5558C17.5558 26.7433 20.9099 18.6459 26.8802 12.6755C32.8505 6.70519 40.948 3.3511 49.3912 3.3511C57.8345 3.3511 65.9319 6.70519 71.9023 12.6755C77.8726 18.6459 81.2267 26.7433 81.2267 35.1866H79.5511C79.1068 35.1866 78.6805 35.3632 78.3664 35.6773C78.0522 35.9915 77.8756 36.4178 77.8756 36.8621V53.6176C77.8756 54.062 78.0522 54.4882 78.3664 54.8024C78.6805 55.1166 79.1068 55.2932 79.5511 55.2932H81.2267V60.3198C81.2267 60.7642 81.0501 61.1904 80.7359 61.5046C80.4218 61.8188 79.9955 61.9954 79.5511 61.9954H67.5207C67.1728 61.019 66.5328 60.1734 65.6873 59.5739C64.8418 58.9742 63.8321 58.6496 62.7956 58.6443H59.4445C58.1115 58.6443 56.8329 59.1739 55.8902 60.1166C54.9475 61.0592 54.4179 62.3379 54.4179 63.6709C54.4179 65.004 54.9475 66.2826 55.8902 67.2253C56.8329 68.1679 58.1115 68.6976 59.4445 68.6976H62.7956C63.8321 68.6922 64.8418 68.3677 65.6873 67.768C66.5328 67.1685 67.1728 66.3228 67.5207 65.3465H79.5511C80.883 65.3425 82.1593 64.8116 83.1011 63.8698C84.043 62.928 84.5738 61.6517 84.5778 60.3198V55.2932H87.9289C90.5952 55.2932 93.1523 54.2341 95.0376 52.3486C96.9231 50.4632 97.9822 47.9062 97.9822 45.2399C97.9822 42.5736 96.9231 40.0165 95.0376 38.1312C93.1523 36.2457 90.5952 35.1866 87.9289 35.1866ZM10.8536 51.9421C9.07603 51.9421 7.3713 51.236 6.11439 49.979C4.85749 48.7222 4.15136 47.0175 4.15136 45.2399C4.15136 43.4623 4.85749 41.7576 6.11439 40.5007C7.3713 39.2437 9.07603 38.5377 10.8536 38.5377V51.9421ZM17.5558 51.9421H14.2047V38.5377H17.5558V51.9421ZM62.7956 65.3465H59.4445C59.0002 65.3465 58.5739 65.1699 58.2598 64.8557C57.9456 64.5415 57.769 64.1153 57.769 63.6709C57.769 63.2266 57.9456 62.8003 58.2598 62.4861C58.5739 62.172 59.0002 61.9954 59.4445 61.9954H62.7956C63.24 61.9954 63.6663 62.172 63.9804 62.4861C64.2946 62.8003 64.4712 63.2266 64.4712 63.6709C64.4712 64.1153 64.2946 64.5415 63.9804 64.8557C63.6663 65.1699 63.24 65.3465 62.7956 65.3465ZM84.5778 51.9421H81.2267V38.5377H84.5778V51.9421ZM87.9289 51.9421V38.5377C89.7065 38.5377 91.4112 39.2437 92.668 40.5007C93.925 41.7576 94.6311 43.4623 94.6311 45.2399C94.6311 47.0175 93.925 48.7222 92.668 49.979C91.4112 51.236 89.7065 51.9421 87.9289 51.9421Z" fill="#393E46"/>
</svg>
