<svg width="1440" height="934" viewBox="0 0 1440 934" fill="none" xmlns="http://www.w3.org/2000/svg">
<path d="M700.572 934C637.906 934 569.069 920.462 489.027 892.732C450.797 879.49 412.709 864.13 375.882 849.268C327.383 829.701 277.216 809.464 226.519 794.026C122.461 762.323 30.9167 757.494 -45.5415 779.662L-49.8896 764.707C29.5296 741.681 124.05 746.526 231.054 779.132C282.406 794.773 332.884 815.135 381.695 834.826C418.35 849.61 456.252 864.893 494.107 878.01C601.454 915.196 687.793 926.32 765.825 913.016C805.519 906.239 860.018 889.149 894.273 846.105C940.154 788.433 930.57 692.842 873.748 641.542C846.834 617.254 810.288 602.673 770.828 600.523C731.835 598.389 693.247 608.406 662.125 628.705L653.6 615.665C724.65 569.303 823.784 575.457 884.19 629.982C913.926 656.824 933.562 696.628 938.066 739.189C942.695 782.965 931.474 824.373 906.476 855.795C869.167 902.687 810.833 921.132 768.459 928.361C746.516 932.099 723.98 933.984 700.572 933.984V934Z" fill="url(#paint0_linear_0_152)" fill-opacity="0.2"/>
<path d="M1313.56 774.641C1284.6 774.641 1254.45 767.631 1226.48 753.829C1186.39 734.045 1149.14 700.6 1115.8 654.428C1016.97 517.61 996.115 328.996 1062.67 173.89L1076.98 180.027C1012.55 330.211 1032.73 512.843 1128.43 645.299C1160.28 689.384 1195.59 721.194 1233.38 739.856C1278.16 761.96 1328.75 765.216 1368.7 748.564C1412.65 730.26 1443.19 685.599 1441.31 642.387C1440.25 617.867 1430.09 594.33 1411.16 572.412C1394.43 553.064 1371.7 536.116 1345.41 523.389C1320.8 511.472 1294.12 502.671 1268.3 494.15C1241.41 485.286 1213.63 476.111 1187.6 463.322C1159.53 449.52 1135.24 431.014 1117.32 409.797C1096.59 385.247 1085.27 357.581 1084.55 329.822C1083.46 286.89 1106.28 249.519 1128.35 213.379C1130.86 209.282 1133.35 205.201 1135.8 201.135C1166.06 150.757 1174.53 111.003 1161.73 79.6138C1151.85 55.3906 1128.4 35.7317 1097.39 25.653C1069.49 16.5868 1040.07 15.73 1007.28 15.5898C945.324 15.3094 873.646 16.727 808.089 37.1648C738.56 58.8333 683.017 101.563 655.682 154.386C636.073 192.287 630.03 234.222 623.628 278.618C620.124 302.903 616.51 327.999 610.451 352.175C592.555 423.614 549.691 490.536 489.742 540.602C429.792 590.684 356.306 620.936 282.837 625.812C209.336 630.688 132.534 610.39 66.4936 568.673C0.484787 526.956 -50.8364 466.281 -78 397.833L-63.5148 392.085C-37.5661 457.496 11.5745 515.538 74.8577 555.51C138.125 595.482 211.657 614.939 281.856 610.281C352.07 605.623 422.362 576.633 479.804 528.654C537.247 480.675 578.304 416.667 595.39 348.39C601.246 324.992 604.813 300.286 608.255 276.39C614.563 232.664 621.074 187.458 641.898 147.236C671.133 90.7363 730.024 45.2029 803.494 22.3038C871.169 1.21168 944.218 -0.252619 1007.39 0.0277778C1040.26 0.167976 1072.25 1.10263 1102.25 10.8542C1137.63 22.3505 1164.6 45.2652 1176.2 73.7411C1190.98 109.99 1182.15 154.293 1149.19 209.173C1146.73 213.27 1144.22 217.382 1141.7 221.51C1120.8 255.719 1099.19 291.096 1100.18 329.432C1101.58 384.343 1149.83 427.384 1194.52 449.349C1219.58 461.671 1246.85 470.659 1273.22 479.367C1299.51 488.043 1326.7 497.016 1352.23 509.385C1380.41 523.031 1404.86 541.303 1422.96 562.24C1444.27 586.883 1455.69 613.63 1456.9 641.732C1459.08 692.048 1425.28 741.896 1374.71 762.957C1355.94 770.777 1335.08 774.641 1313.57 774.641H1313.56Z" fill="url(#paint1_linear_0_152)" fill-opacity="0.2"/>
<defs>
<linearGradient id="paint0_linear_0_152" x1="689.5" y1="0" x2="689.5" y2="934" gradientUnits="userSpaceOnUse">
<stop offset="0.276042" stop-color="#00ADB5"/>
<stop offset="0.703125" stop-color="#222831" stop-opacity="0.47"/>
<stop offset="1" stop-color="#222831" stop-opacity="0"/>
</linearGradient>
<linearGradient id="paint1_linear_0_152" x1="689.5" y1="0" x2="689.5" y2="934" gradientUnits="userSpaceOnUse">
<stop offset="0.276042" stop-color="#00ADB5"/>
<stop offset="0.703125" stop-color="#222831" stop-opacity="0.47"/>
<stop offset="1" stop-color="#222831" stop-opacity="0"/>
</linearGradient>
</defs>
</svg>
