<svg width="100" height="101" viewBox="0 0 100 101" fill="none" xmlns="http://www.w3.org/2000/svg">
<path d="M89.0375 35.3971C88.1016 34.7581 86.9724 34.4709 85.8475 34.5862C84.7227 34.7013 83.6738 35.2112 82.8844 36.0268L79.6875 39.2477C78.893 38.4782 77.86 38.0075 76.7619 37.9143C75.6638 37.8211 74.5672 38.1112 73.6563 38.7361C73.1014 39.1343 72.6394 39.6497 72.3024 40.2464C71.9653 40.843 71.7616 41.5064 71.705 42.1906C71.6485 42.8746 71.7406 43.5629 71.9752 44.2074C72.2095 44.8519 72.5806 45.4372 73.0625 45.9225L76.3766 49.2631C77.2556 50.1484 78.4477 50.6459 79.6906 50.6459C80.9336 50.6459 82.1256 50.1484 83.0047 49.2631L89.6344 42.5835C90.1163 42.0982 90.4874 41.5129 90.7217 40.8684C90.9563 40.2239 91.0485 39.5356 90.9919 38.8516C90.9353 38.1674 90.7316 37.5041 90.3946 36.9074C90.0575 36.3108 89.5955 35.7954 89.0406 35.3971H89.0375ZM87.4219 40.3575L80.7922 47.0355C80.4992 47.3307 80.1019 47.4964 79.6875 47.4964C79.2731 47.4964 78.8758 47.3307 78.5828 47.0355L75.2688 43.6949C75.107 43.5322 74.9828 43.3357 74.9045 43.1194C74.8264 42.9029 74.7964 42.672 74.8166 42.4426C74.8366 42.2133 74.9064 41.9911 75.021 41.7918C75.1356 41.5925 75.2922 41.4211 75.4797 41.2895C75.7206 41.1207 76.0081 41.0321 76.3016 41.036C76.788 41.0426 77.2524 41.241 77.5953 41.5886L78.5828 42.5835C78.8758 42.8787 79.2731 43.0445 79.6875 43.0445C80.1019 43.0445 80.4992 42.8787 80.7922 42.5835L85.0938 38.2543C85.3588 37.9669 85.7141 37.7803 86.0999 37.726C86.4855 37.6719 86.878 37.7534 87.211 37.9568C87.3985 38.0884 87.555 38.2598 87.6696 38.4591C87.7842 38.6584 87.8541 38.8806 87.8741 39.1099C87.8942 39.3393 87.8642 39.5702 87.7861 39.7867C87.7078 40.003 87.5836 40.1995 87.4219 40.3623V40.3575Z" fill="#393E46"/>
<path d="M93.75 81.8608H92.1875V53.729C93.6714 52.2669 94.8503 50.5209 95.6553 48.5934C96.4603 46.6659 96.8748 44.5957 96.8748 42.5046C96.8748 40.4136 96.4603 38.3434 95.6553 36.4159C94.8503 34.4884 93.6714 32.7424 92.1875 31.2803V29.9107C92.1875 27.823 91.3644 25.8209 89.8992 24.3449C88.4342 22.8687 86.447 22.0394 84.375 22.0394H71.3281C70.8859 21.1004 70.1892 20.3063 69.3183 19.7492C68.4475 19.1921 67.4378 18.8945 66.4062 18.8909H65.625V15.7424C65.6194 13.8264 64.9191 11.9785 63.6559 10.5463C62.3927 9.11413 60.6534 8.19634 58.7656 7.96564C58.1689 6.53751 57.167 5.3186 55.8858 4.46168C54.6044 3.60473 53.1005 3.14792 51.5625 3.14844H35.9375C35.5231 3.14844 35.1256 3.3143 34.8327 3.60952C34.5397 3.90475 34.375 4.30516 34.375 4.72269V7.87118C34.3817 9.2512 34.7539 10.6044 35.4531 11.7911C34.7564 12.9903 34.3845 14.3529 34.375 15.7424V18.8909H33.5938C32.5622 18.8945 31.5525 19.1921 30.6817 19.7492C29.8108 20.3063 29.1141 21.1004 28.6719 22.0394H15.625C13.553 22.0394 11.5659 22.8687 10.1007 24.3449C8.63559 25.8209 7.8125 27.823 7.8125 29.9107V81.8608H6.25C5.42195 81.8634 4.62855 82.1958 4.04302 82.7857C3.4575 83.3757 3.12747 84.1751 3.125 85.0093V89.7321C3.125 91.8197 3.94809 93.8218 5.41323 95.2978C6.87836 96.774 8.8655 97.6033 10.9375 97.6033H89.0625C91.1345 97.6033 93.1217 96.774 94.5867 95.2978C96.0519 93.8218 96.875 91.8197 96.875 89.7321V85.0093C96.8725 84.1751 96.5425 83.3757 95.957 82.7857C95.3714 82.1958 94.578 81.8634 93.75 81.8608ZM93.75 42.5046C93.75 44.9956 93.0169 47.4305 91.6434 49.5015C90.2698 51.5726 88.3177 53.1867 86.0336 54.1399C83.7495 55.0931 81.2361 55.3426 78.8114 54.8567C76.3866 54.3707 74.1594 53.1713 72.4111 51.41C70.663 49.6486 69.4725 47.4046 68.9902 44.9616C68.5078 42.5187 68.7555 39.9863 69.7016 37.6851C70.6477 35.3838 72.2497 33.417 74.3053 32.0331C76.3609 30.6493 78.7777 29.9107 81.25 29.9107C84.5638 29.9152 87.7406 31.2436 90.0837 33.6045C92.427 35.9652 93.7455 39.166 93.75 42.5046ZM71.7969 25.1879H84.375C85.4261 25.1904 86.4458 25.5489 87.2705 26.2055C88.095 26.8621 88.6766 27.779 88.9219 28.8087C86.7352 27.5523 84.2772 26.8527 81.7613 26.7703C79.2453 26.688 76.7473 27.2256 74.4844 28.3364H70.2188C71.0795 27.4942 71.6352 26.3858 71.7969 25.1879ZM65.625 22.0394H66.4062C67.0278 22.0394 67.6241 22.2881 68.0636 22.731C68.5031 23.1738 68.75 23.7746 68.75 24.4008C68.75 25.027 68.5031 25.6278 68.0636 26.0706C67.6241 26.5134 67.0278 26.7622 66.4062 26.7622H65.625V22.0394ZM65.3125 31.4849H70.1094C67.9505 33.6955 66.4884 36.4997 65.9067 39.5452C65.3252 42.5906 65.65 45.7411 66.8406 48.6011C68.0311 51.461 70.0342 53.9025 72.598 55.6188C75.1617 57.3352 78.1719 58.2495 81.25 58.2471C81.7812 58.2471 82.2969 58.2156 82.8125 58.1684V75.5639H75V68.3538C75.012 64.5513 73.9677 60.8213 71.9852 57.5858C70.0025 54.3502 67.1606 51.7382 63.7812 50.0453L60.9062 48.597C60.8805 48.3752 60.807 48.1615 60.6909 47.9714C60.575 47.781 60.4191 47.6184 60.2344 47.495L56.25 44.803V42.7565C58.5444 41.7436 60.5644 40.1916 62.1411 38.2306C63.7178 36.2695 64.8053 33.9563 65.3125 31.4849ZM34.375 64.5441V67.6926H28.1719C28.2738 64.5917 29.2061 61.5762 30.8702 58.9654C32.5344 56.3549 34.8684 54.2463 37.625 52.8632L39.9375 51.6982L42.2656 58.7509C42.3456 58.985 42.4792 59.1969 42.6556 59.3692C42.8322 59.5415 43.0464 59.6695 43.2812 59.7427C43.4328 59.7918 43.5908 59.8182 43.75 59.8214C44.0875 59.8182 44.4156 59.708 44.6875 59.5065L50 55.4922L55.3125 59.5065C55.5844 59.708 55.9125 59.8182 56.25 59.8214C56.4092 59.8182 56.5672 59.7918 56.7188 59.7427C56.955 59.6724 57.1708 59.5454 57.3477 59.3727C57.5247 59.2 57.6573 58.9865 57.7344 58.7509L60.0625 51.6982L62.375 52.8475C65.1309 54.2356 67.4639 56.3475 69.1277 58.9604C70.7914 61.5732 71.7244 64.5901 71.8281 67.6926H65.625V64.5441H62.5V75.5639H37.5V64.5441H34.375ZM34.375 70.8411V75.5639H28.125V70.8411H34.375ZM53.125 45.2123L50 50.4703L46.875 45.2123V43.764C48.9375 44.1839 51.0625 44.1839 53.125 43.764V45.2123ZM55.1875 47.8728L57.5156 49.4471L55.4531 55.6811L52.0625 53.1151L55.1875 47.8728ZM47.9375 53.1151L44.5469 55.6811L42.4844 49.4471L44.8125 47.8728L47.9375 53.1151ZM65.625 70.8411H71.875V75.5639H65.625V70.8411ZM59.375 11.303C60.2855 11.6298 61.0741 12.2313 61.6331 13.0256C62.1923 13.82 62.495 14.7686 62.5 15.7424V16.6712L59.375 13.5227V11.303ZM37.5 6.29693H51.5625C52.8045 6.30066 53.9947 6.79945 54.873 7.68432C55.7512 8.5692 56.2463 9.76828 56.25 11.0197V12.5939H42.1875C40.9455 12.5902 39.7553 12.0914 38.877 11.2065C37.9987 10.3217 37.5037 9.12258 37.5 7.87118V6.29693ZM37.5 15.7424C37.4991 15.2603 37.5783 14.7814 37.7344 14.3256C38.375 14.761 39.075 15.1003 39.8125 15.3331L37.5 17.1907V15.7424ZM37.5 21.2208L44.2969 15.7424H57.1719L62.5 21.1106V28.3364C62.4955 31.6751 61.177 34.8758 58.8337 37.2366C56.4906 39.5975 53.3138 40.9258 50 40.9304C46.6856 40.9279 43.5075 39.6002 41.1639 37.2389C38.8203 34.8777 37.5025 31.6757 37.5 28.3364V21.2208ZM34.6875 31.4849C35.1967 33.9555 36.285 36.2676 37.8616 38.2284C39.438 40.1892 41.4569 41.7418 43.75 42.7565V44.803L39.7656 47.495C39.5809 47.6184 39.425 47.781 39.3091 47.9714C39.193 48.1615 39.1195 48.3752 39.0938 48.597L36.2188 50.0453C32.8394 51.7382 29.9975 54.3502 28.0148 57.5858C26.0323 60.8213 24.988 64.5513 25 68.3538V75.5639H17.1875V31.4849H34.6875ZM33.5938 22.0394H34.375V26.7622H33.5938C32.9722 26.7622 32.3759 26.5134 31.9364 26.0706C31.4969 25.6278 31.25 25.027 31.25 24.4008C31.25 23.7746 31.4969 23.1738 31.9364 22.731C32.3759 22.2881 32.9722 22.0394 33.5938 22.0394ZM10.9375 29.9107C10.9412 28.6593 11.4363 27.4602 12.3145 26.5753C13.1928 25.6904 14.3829 25.1917 15.625 25.1879H28.2031C28.3648 26.3858 28.9205 27.4942 29.7812 28.3364H15.625C15.2106 28.3364 14.8132 28.5023 14.5201 28.7975C14.2271 29.0927 14.0625 29.4932 14.0625 29.9107V77.1381C14.0625 77.5556 14.2271 77.9561 14.5201 78.2513C14.8132 78.5464 15.2106 78.7123 15.625 78.7123H84.375C84.7894 78.7123 85.1869 78.5464 85.4798 78.2513C85.7728 77.9561 85.9375 77.5556 85.9375 77.1381V57.523C87.0258 57.1697 88.0734 56.7 89.0625 56.1219V81.8608H10.9375V29.9107ZM56.25 85.0093V88.1578H43.75V85.0093H56.25ZM93.75 89.7321C93.7462 90.9835 93.2512 92.1826 92.373 93.0674C91.4947 93.9523 90.3045 94.451 89.0625 94.4548H10.9375C9.69544 94.451 8.50531 93.9523 7.62703 93.0674C6.74877 92.1826 6.2537 90.9835 6.25 89.7321V85.0093H40.625V88.1578C40.6275 88.992 40.9575 89.7914 41.543 90.3815C42.1286 90.9713 42.922 91.3038 43.75 91.3063H56.25C57.078 91.3038 57.8714 90.9713 58.457 90.3815C59.0425 89.7914 59.3725 88.992 59.375 88.1578V85.0093H93.75V89.7321Z" fill="#393E46"/>
<path d="M56.25 26.7623C57.9759 26.7623 59.375 25.3527 59.375 23.6138C59.375 21.8749 57.9759 20.4653 56.25 20.4653C54.5241 20.4653 53.125 21.8749 53.125 23.6138C53.125 25.3527 54.5241 26.7623 56.25 26.7623Z" fill="#393E46"/>
<path d="M43.75 26.7623C45.4759 26.7623 46.875 25.3527 46.875 23.6138C46.875 21.8749 45.4759 20.4653 43.75 20.4653C42.0241 20.4653 40.625 21.8749 40.625 23.6138C40.625 25.3527 42.0241 26.7623 43.75 26.7623Z" fill="#393E46"/>
<path d="M54.6875 29.9106H45.3125C44.8981 29.9106 44.5006 30.0766 44.2077 30.3717C43.9147 30.6669 43.75 31.0674 43.75 31.4849C43.75 33.155 44.4084 34.7567 45.5806 35.9375C46.7527 37.1185 48.3423 37.7819 50 37.7819C51.6577 37.7819 53.2473 37.1185 54.4194 35.9375C55.5916 34.7567 56.25 33.155 56.25 31.4849C56.25 31.0674 56.0853 30.6669 55.7923 30.3717C55.4994 30.0766 55.1019 29.9106 54.6875 29.9106ZM50 34.6334C49.4517 34.6331 48.9131 34.4875 48.4384 34.2112C47.9638 33.9349 47.5694 33.5376 47.2953 33.0591H52.7047C52.4306 33.5376 52.0363 33.9349 51.5616 34.2112C51.0869 34.4875 50.5483 34.6331 50 34.6334Z" fill="#393E46"/>
<path d="M51.5625 59.8215H48.4375V62.97H51.5625V59.8215Z" fill="#393E46"/>
<path d="M51.5625 66.1184H48.4375V69.2669H51.5625V66.1184Z" fill="#393E46"/>
</svg>
