<svg width="56" height="62" viewBox="0 0 56 62" fill="none" xmlns="http://www.w3.org/2000/svg">
<path d="M19.6667 21.4667V20.5469L18.7502 20.4702C12.9122 19.981 6.70201 19.0578 1.21416 17.6804L2.27831 13.4846C10.282 15.4796 19.4856 16.3333 28 16.3333C36.5144 16.3333 45.718 15.4796 53.7217 13.4846L54.7858 17.6804C49.298 19.0578 43.0878 19.981 37.2498 20.4702L36.3333 20.5469V21.4667V60.3333H32.1111V42.9333V41.9333H31.1111H24.8889H23.8889V42.9333V60.3333H19.6667V21.4667ZM33.2222 6.13333C33.2222 8.94087 30.8836 11.2667 28 11.2667C25.1164 11.2667 22.7778 8.94087 22.7778 6.13333C22.7778 3.3258 25.1164 1 28 1C30.8836 1 33.2222 3.3258 33.2222 6.13333Z" stroke="#00ADB5" stroke-width="2"/>
</svg>
