<svg width="489" height="506" viewBox="0 0 489 506" fill="none" xmlns="http://www.w3.org/2000/svg">
<path d="M249 0.5V148" stroke="#222831" stroke-dasharray="2 2"/>
<path d="M479.298 120L375 224.298" stroke="#222831" stroke-dasharray="2 2"/>
<path d="M10 505.299L114.298 401.001" stroke="#222831" stroke-dasharray="2 2"/>
<path d="M1 120L105.298 224.298" stroke="#222831" stroke-dasharray="2 2"/>
<path d="M488.298 505.299L384 401.001" stroke="#222831" stroke-dasharray="2 2"/>
<path d="M161.711 385.26L162.045 385.287L162.379 385.289L194.423 385.469L215.927 406.965L222.29 413.326L228.653 406.965L249.589 386.037H347.606H347.852L348.097 386.024C385.415 383.986 414.94 352.718 414.94 315.03C414.94 279.763 389.121 250.53 355.344 245.178C347.889 198.747 307.655 163.279 259.116 163.279C220.632 163.279 187.398 185.569 171.54 217.904C171.233 217.901 170.926 217.899 170.617 217.899C124.255 217.899 86.6592 255.476 86.6592 301.829C86.6592 347.777 118.349 381.786 161.711 385.26Z" stroke="#00ADB5" stroke-width="18" stroke-miterlimit="10"/>
</svg>
