<svg width="56" height="57" viewBox="0 0 56 57" fill="none" xmlns="http://www.w3.org/2000/svg">
<path d="M55.1361 15.1437H50.9671C50.764 15.1441 50.5654 15.0836 50.3962 14.9696C50.2269 14.8556 50.0945 14.6933 50.0156 14.503C49.9367 14.3128 49.9148 14.103 49.9527 13.9002C49.9906 13.6973 50.0865 13.5104 50.2285 13.3628L53.129 10.3341C53.2863 10.1727 53.3759 9.95555 53.3791 9.72832C53.3703 9.49994 53.2767 9.28346 53.1171 9.12257L46.5658 2.65318C46.4052 2.49764 46.1919 2.41088 45.9702 2.41088C45.7484 2.41088 45.5352 2.49764 45.3746 2.65318L42.8494 5.27607C42.7092 5.43512 42.5243 5.54652 42.3198 5.59516C42.1154 5.6438 41.9011 5.62734 41.7061 5.54802C41.5111 5.46869 41.3448 5.33032 41.2297 5.15166C41.1146 4.973 41.0563 4.76267 41.0626 4.54917V0.914681C41.0707 0.681099 40.9875 0.45377 40.8313 0.282376C40.675 0.110983 40.4584 0.00946141 40.2288 2.48192e-10H31.1284C31.0145 -2.75498e-06 30.9017 0.0229152 30.7966 0.067434C30.6914 0.111953 30.5959 0.177193 30.5157 0.259396C30.4354 0.3416 30.3719 0.439143 30.3289 0.546408C30.2858 0.653673 30.2641 0.76854 30.2648 0.884393V5.12463C30.2608 5.32586 30.1988 5.52146 30.0866 5.68725C29.9744 5.85304 29.8169 5.98176 29.6335 6.05749C29.4463 6.13931 29.2395 6.16285 29.0391 6.12511C28.8387 6.08737 28.6539 5.99006 28.5079 5.84547L25.53 2.88942C25.3724 2.72781 25.1583 2.63632 24.9344 2.63501C24.7099 2.64395 24.4971 2.7392 24.3389 2.90154L17.9781 9.56477C17.8252 9.72809 17.7399 9.94498 17.7399 10.1705C17.7399 10.3961 17.8252 10.6129 17.9781 10.7763L20.557 13.3386C20.7101 13.4826 20.8166 13.6704 20.8625 13.8773C20.9084 14.0841 20.8915 14.3003 20.8141 14.4972C20.7367 14.6941 20.6023 14.8625 20.4288 14.9801C20.2553 15.0977 20.0508 15.159 19.8423 15.1558H16.2688C16.0382 15.1558 15.817 15.249 15.654 15.4149C15.4909 15.5807 15.3993 15.8057 15.3993 16.0402V18.1725C11.9924 18.8825 8.838 20.5171 6.27065 22.903C3.7033 25.2889 1.81874 28.337 0.816855 31.7241C-0.185026 35.1112 -0.266866 38.711 0.580016 42.1416C1.4269 45.5722 3.17092 48.7056 5.6271 51.2097C8.08328 53.7137 11.16 55.4949 14.531 56.3643C17.902 57.2337 21.4414 57.159 24.774 56.148C28.1066 55.1369 31.108 53.2274 33.4598 50.6218C35.8117 48.0162 37.4263 44.8118 38.1324 41.3484H40.2229C40.3386 41.3508 40.4536 41.3297 40.5611 41.2864C40.6687 41.243 40.7667 41.1782 40.8493 41.0959C40.932 41.0135 40.9976 40.9152 41.0424 40.8067C41.0872 40.6982 41.1103 40.5817 41.1103 40.464V36.2238C41.1094 36.0178 41.1686 35.8161 41.2803 35.6443C41.3921 35.4725 41.5514 35.3382 41.7382 35.2585C41.9249 35.1787 42.1307 35.1571 42.3296 35.1963C42.5284 35.2355 42.7114 35.3338 42.8553 35.4787L45.8332 38.4347C45.9929 38.5931 46.2057 38.6841 46.4288 38.6892C46.653 38.679 46.8655 38.584 47.0243 38.4226L53.403 31.7957C53.4838 31.7146 53.548 31.6179 53.5918 31.5113C53.6357 31.4048 53.6582 31.2904 53.6582 31.1749C53.6582 31.0593 53.6357 30.9449 53.5918 30.8384C53.548 30.7318 53.4838 30.6351 53.403 30.554L50.8063 27.9856C50.6577 27.8414 50.5555 27.655 50.513 27.4506C50.4704 27.2463 50.4896 27.0337 50.568 26.8407C50.6431 26.6469 50.7746 26.481 50.9449 26.3652C51.1152 26.2494 51.3161 26.1891 51.5209 26.1926H55.1361C55.3657 26.191 55.5853 26.0971 55.7471 25.9314C55.9089 25.7657 55.9997 25.5417 55.9997 25.3082V16.0463C56.0029 15.9289 55.9829 15.8121 55.9409 15.7027C55.8989 15.5933 55.8358 15.4936 55.7553 15.4095C55.6748 15.3253 55.5785 15.2585 55.4722 15.2128C55.3658 15.1672 55.2515 15.1437 55.1361 15.1437ZM36.566 40.3186C36.0295 43.5466 34.6296 46.562 32.5199 49.0345C30.4102 51.507 27.672 53.3411 24.6054 54.3359C21.5388 55.3307 18.2621 55.4477 15.1345 54.6741C12.0069 53.9005 9.14894 52.2662 6.87392 49.9503C4.5989 47.6344 2.99457 44.7262 2.23676 41.5444C1.47894 38.3627 1.59687 35.0302 2.57763 31.9121C3.55839 28.794 5.36413 26.0107 7.79697 23.8671C10.2298 21.7235 13.1958 20.3024 16.3701 19.7595C17.3338 19.5894 18.3102 19.5043 19.2884 19.5051C21.4567 19.5018 23.6062 19.9127 25.6253 20.7166C27.8956 21.6135 29.9573 22.9816 31.679 24.7337C33.4007 26.4858 34.7446 28.5836 35.625 30.8932C36.7751 33.8939 37.1003 37.1563 36.566 40.3307V40.3186ZM36.977 29.609C35.0391 24.9859 31.4265 21.2986 26.8879 19.3113C27.135 17.6573 27.8287 16.1056 28.8916 14.8288C29.9545 13.5521 31.3449 12.6005 32.9081 12.0799C34.4713 11.5594 36.1459 11.4903 37.7454 11.8805C39.3449 12.2706 40.8065 13.1047 41.9675 14.2897C43.1285 15.4747 43.9434 16.9643 44.3213 18.5924C44.6992 20.2206 44.6254 21.9235 44.1081 23.5116C43.5908 25.0996 42.6502 26.5105 41.3912 27.587C40.1321 28.6635 38.604 29.3635 36.977 29.609ZM54.2487 24.4298H51.5209C50.9718 24.4283 50.4347 24.5943 49.9793 24.9063C49.5238 25.2184 49.1708 25.6622 48.9659 26.1805C48.7521 26.696 48.6979 27.2656 48.8107 27.8133C48.9235 28.361 49.1979 28.8606 49.5972 29.2455L51.5626 31.1961L46.4169 36.569L44.0346 34.2248C43.6466 33.8383 43.155 33.5768 42.6216 33.4733C42.0881 33.3698 41.5364 33.4289 41.0358 33.643C40.5352 33.8572 40.1079 34.2169 39.8075 34.6771C39.5072 35.1373 39.3471 35.6775 39.3474 36.2298V39.5857H38.4183C38.5037 38.8377 38.5474 38.0853 38.5493 37.3323C38.5517 35.2748 38.2321 33.23 37.6023 31.2748C39.506 30.9177 41.2775 30.0381 42.7253 28.7311C44.173 27.4242 45.242 25.7396 45.8166 23.8594C46.3912 21.9793 46.4496 19.9752 45.9855 18.0638C45.5213 16.1524 44.5523 14.4064 43.1832 13.0145C41.814 11.6227 40.0969 10.6379 38.2173 10.1668C36.3378 9.69564 34.3674 9.75599 32.5191 10.3413C30.6708 10.9266 29.015 12.0147 27.7307 13.4878C26.4464 14.9609 25.5825 16.7631 25.2322 18.6995C22.6072 17.8278 19.8272 17.5467 17.0848 17.8756V16.9246H19.8244C20.3782 16.9283 20.9204 16.7626 21.3805 16.4491C21.8406 16.1355 22.1975 15.6886 22.4048 15.1663C22.6122 14.6439 22.6604 14.0703 22.5433 13.5197C22.4262 12.9692 22.1492 12.4671 21.7481 12.0786L19.7887 10.1402L24.9404 4.76724L27.3227 7.11149C27.7118 7.49753 28.2042 7.75829 28.7383 7.86114C29.2724 7.96399 29.8244 7.90435 30.3253 7.6897C30.8263 7.47504 31.2538 7.1149 31.5545 6.65434C31.8552 6.19378 32.0157 5.65326 32.0158 5.1004V1.76879H39.3652V4.55523C39.3656 5.11659 39.5323 5.66481 39.8436 6.12838C40.1549 6.59194 40.5963 6.94932 41.1103 7.15389C41.6128 7.36248 42.1653 7.41279 42.6962 7.2983C43.2272 7.18382 43.7121 6.90982 44.0882 6.5118L46.0059 4.51888L51.2887 9.75861L48.9897 12.1513C48.6102 12.5471 48.3538 13.0479 48.2527 13.5911C48.1516 14.1343 48.2102 14.6958 48.4212 15.2052C48.6323 15.7147 48.9864 16.1496 49.4392 16.4554C49.892 16.7612 50.4235 16.9244 50.9671 16.9246H54.2546L54.2487 24.4298Z" fill="url(#paint0_linear_44_676)"/>
<path d="M19.8244 27.507C22.6713 27.507 24.9821 29.5424 24.9821 32.0441H26.7152C26.7152 28.87 24.1304 26.241 20.7595 25.817V22.552H19.074V25.7867C15.6375 26.1381 12.9515 28.8155 12.9515 32.0441C12.9515 35.1455 15.4231 37.7321 18.6571 38.247C18.7774 38.3077 18.91 38.3388 19.0442 38.3378C22.0221 38.3378 24.4878 40.4882 24.4878 43.1293C24.4878 45.7704 22.0459 47.9208 19.0442 47.9208C16.0425 47.9208 13.6006 45.7704 13.6006 43.1293H11.8735C11.8735 46.7638 15.0896 49.6774 19.0204 49.6774H19.074V52.1004H20.8071V49.4715C23.8922 48.7506 26.2209 46.1883 26.2209 43.1293C26.2209 39.8825 23.6242 37.1808 20.2234 36.666C20.106 36.6102 19.9779 36.5812 19.8482 36.5812C17.0014 36.5812 14.6846 34.5458 14.6846 32.0441C14.6846 29.5424 16.9776 27.507 19.8244 27.507Z" fill="url(#paint1_linear_44_676)"/>
<defs>
<linearGradient id="paint0_linear_44_676" x1="0.0155657" y1="28.4702" x2="55.9997" y2="28.4702" gradientUnits="userSpaceOnUse">
<stop stop-color="#00ADB5"/>
<stop offset="0.81" stop-color="#00ADB5"/>
</linearGradient>
<linearGradient id="paint1_linear_44_676" x1="11.8499" y1="37.3383" x2="26.7155" y2="37.3383" gradientUnits="userSpaceOnUse">
<stop stop-color="#00ADB5"/>
<stop offset="0.81" stop-color="#00ADB5"/>
</linearGradient>
</defs>
</svg>
