<svg width="1440" height="1166" viewBox="0 0 1440 1166" fill="none" xmlns="http://www.w3.org/2000/svg">
<path d="M707.374 1166C629.109 1166 543.137 1149.1 443.17 1114.48C395.425 1097.95 347.856 1078.77 301.862 1060.22C241.291 1035.79 178.636 1010.53 115.32 991.257C-14.6407 951.68 -128.972 945.65 -224.462 973.325L-229.892 954.655C-130.704 925.91 -12.6554 931.959 120.984 972.664C185.118 992.19 248.161 1017.61 309.122 1042.19C354.902 1060.65 402.238 1079.73 449.516 1096.1C583.583 1142.53 691.413 1156.41 788.869 1139.8C838.444 1131.34 906.509 1110.01 949.291 1056.27C1006.59 984.275 994.623 864.94 923.657 800.897C890.043 770.577 844.4 752.373 795.117 749.689C746.419 747.025 698.226 759.53 659.356 784.871L648.71 768.593C737.446 710.715 861.256 718.397 936.698 786.466C973.835 819.975 998.36 869.666 1003.98 922.799C1009.77 977.449 995.752 1029.14 964.531 1068.37C917.935 1126.91 845.081 1149.94 792.159 1158.96C764.754 1163.63 736.609 1165.98 707.374 1165.98V1166Z" fill="url(#paint0_linear_2_235)" fill-opacity="0.2"/>
<path d="M1472.95 967.057C1436.78 967.057 1399.12 958.305 1364.19 941.075C1314.12 916.378 1267.6 874.625 1225.96 816.984C1102.53 646.181 1076.48 410.717 1159.6 217.083L1177.48 224.745C1097.01 412.233 1122.22 640.23 1241.73 805.588C1281.51 860.623 1325.61 900.334 1372.8 923.631C1428.73 951.227 1491.91 955.291 1541.81 934.502C1596.7 911.652 1634.85 855.897 1632.49 801.951C1631.17 771.342 1618.49 741.957 1594.83 714.596C1573.94 690.442 1545.56 669.284 1512.73 653.396C1481.99 638.519 1448.67 627.531 1416.42 616.894C1382.84 605.828 1348.14 594.374 1315.63 578.408C1280.58 561.178 1250.23 538.075 1227.86 511.588C1201.97 480.94 1187.83 446.402 1186.94 411.747C1185.57 358.151 1214.07 311.498 1241.64 266.381C1244.77 261.266 1247.88 256.171 1250.93 251.096C1288.73 188.204 1299.31 138.575 1283.32 99.3894C1270.99 69.1493 1241.69 44.6072 1202.96 32.025C1168.12 20.7068 1131.38 19.6373 1090.43 19.4622C1013.05 19.1122 923.529 20.8819 841.653 46.3963C754.817 73.4471 685.449 126.79 651.31 192.735C626.82 240.05 619.272 292.401 611.277 347.825C606.9 378.143 602.387 409.472 594.82 439.654C572.469 528.838 518.936 612.382 444.063 674.885C369.191 737.407 277.414 775.173 185.656 781.26C93.8598 787.347 -2.06048 762.007 -84.5391 709.928C-166.979 657.849 -231.075 582.103 -265 496.653L-246.909 489.477C-214.501 571.135 -153.129 643.594 -74.0931 693.495C4.92297 743.397 96.7582 767.686 184.431 761.871C272.123 756.056 359.912 719.866 431.653 659.969C503.393 600.072 554.67 520.164 576.01 434.928C583.324 405.719 587.778 374.876 592.077 345.044C599.956 290.456 608.087 234.021 634.095 183.809C670.607 113.275 744.157 56.431 835.915 27.8439C920.436 1.51265 1011.67 -0.315369 1090.57 0.0346776C1131.61 0.209701 1171.57 1.37652 1209.03 13.5503C1253.23 27.9022 1286.9 56.5088 1301.39 92.0579C1319.85 137.311 1308.82 192.618 1267.66 261.13C1264.59 266.245 1261.46 271.379 1258.31 276.532C1232.2 319.238 1205.22 363.402 1206.45 411.261C1208.2 479.812 1268.46 533.544 1324.27 560.964C1355.57 576.347 1389.63 587.568 1422.56 598.439C1455.4 609.271 1489.36 620.472 1521.25 635.913C1556.44 652.948 1586.98 675.76 1609.58 701.897C1636.19 732.662 1650.45 766.052 1651.97 801.135C1654.69 863.949 1612.48 926.179 1549.32 952.471C1525.88 962.234 1499.83 967.057 1472.96 967.057H1472.95Z" fill="url(#paint1_linear_2_235)" fill-opacity="0.2"/>
<defs>
<linearGradient id="paint0_linear_2_235" x1="693.546" y1="0" x2="693.546" y2="1166" gradientUnits="userSpaceOnUse">
<stop offset="0.276042" stop-color="#00ADB5"/>
<stop offset="0.703125" stop-color="#222831" stop-opacity="0.47"/>
<stop offset="1" stop-color="#222831" stop-opacity="0"/>
</linearGradient>
<linearGradient id="paint1_linear_2_235" x1="693.546" y1="0" x2="693.546" y2="1166" gradientUnits="userSpaceOnUse">
<stop offset="0.276042" stop-color="#00ADB5"/>
<stop offset="0.703125" stop-color="#222831" stop-opacity="0.47"/>
<stop offset="1" stop-color="#222831" stop-opacity="0"/>
</linearGradient>
</defs>
</svg>
