<svg width="56" height="63" viewBox="0 0 56 63" fill="none" xmlns="http://www.w3.org/2000/svg">
<path d="M52.2945 9.6689C44.1065 8.06702 34.1853 2.79335 30.2995 0.59988C29.5993 0.206799 28.8065 0 27.9996 0C27.1928 0 26.3999 0.206799 25.6998 0.59988C21.814 2.79339 11.8927 8.06705 3.70475 9.6689C2.65843 9.87853 1.71814 10.4361 1.04303 11.2473C0.367918 12.0584 -0.000546902 13.0733 6.0929e-07 14.1202V26.198C0.238985 40.7503 7.16132 55.754 25.1721 62.5162C26.9994 63.1613 28.999 63.1613 30.8263 62.516C35.8643 60.7475 40.4559 57.9386 44.2903 54.2795C48.1247 50.6204 51.1123 46.1964 53.051 41.307C55.0295 36.4934 56.031 31.3475 55.9993 26.1579V14.1202C55.9998 13.0733 55.6313 12.0584 54.9562 11.2473C54.2811 10.4361 53.3408 9.87852 52.2945 9.6689ZM53.7039 26.1579C53.4688 40.0134 46.9161 54.0478 30.0476 60.4002C28.7237 60.8669 27.2752 60.8668 25.9514 60.3999C9.02397 54.045 2.51482 39.9019 2.29503 26.1982L2.29536 14.1202C2.29377 13.5933 2.47791 13.082 2.81663 12.6729C3.15536 12.2638 3.62786 11.9819 4.15419 11.875C12.675 10.2083 22.8614 4.79849 26.8452 2.55001C27.1966 2.35239 27.5946 2.24841 27.9996 2.24841C28.4047 2.24841 28.8027 2.35239 29.154 2.55001C33.1379 4.79845 43.3242 10.2083 51.8451 11.875C52.3714 11.9819 52.8439 12.2638 53.1826 12.6729C53.5213 13.082 53.7055 13.5933 53.7039 14.1202L53.7039 26.1579ZM42.5996 22.6471L23.7356 41.9069C23.6246 42.0187 23.4912 42.1069 23.3438 42.1658C23.1964 42.2247 23.0382 42.2531 22.8791 42.2492C22.72 42.2454 22.5634 42.2093 22.4191 42.1433C22.2749 42.0773 22.1461 41.9828 22.0409 41.8657L13.3604 32.0628C13.1682 31.8365 13.074 31.5453 13.0982 31.2517C13.1224 30.9581 13.2631 30.6855 13.49 30.4925C13.7169 30.2994 14.0119 30.2011 14.3118 30.2188C14.6118 30.2366 14.8927 30.3688 15.0942 30.5872L22.9505 39.4602L40.9442 21.0891C41.1567 20.8815 41.4437 20.7638 41.7437 20.761C42.0436 20.7583 42.3328 20.8708 42.5492 21.0745C42.7656 21.2781 42.8921 21.5567 42.9015 21.8507C42.9109 22.1446 42.8025 22.4305 42.5996 22.6471Z" fill="url(#paint0_linear_44_678)"/>
<defs>
<linearGradient id="paint0_linear_44_678" x1="-2.23446e-05" y1="31.5" x2="55.9993" y2="31.5" gradientUnits="userSpaceOnUse">
<stop stop-color="#00ADB5"/>
<stop offset="1" stop-color="#00ADB5"/>
</linearGradient>
</defs>
</svg>
