<svg width="56" height="58" viewBox="0 0 56 58" fill="none" xmlns="http://www.w3.org/2000/svg">
<path d="M33.9632 24.7716V37.3657C33.9632 37.7261 34.1052 38.0718 34.3581 38.3267C34.611 38.5816 34.954 38.7248 35.3116 38.7248C35.6693 38.7248 36.0123 38.5816 36.2651 38.3267C36.518 38.0718 36.6601 37.7261 36.6601 37.3657V21.4917C36.676 21.1811 36.573 20.8763 36.3724 20.64C36.2468 20.4782 36.0856 20.3481 35.9015 20.2601C35.7173 20.172 35.5154 20.1284 35.3116 20.1326H19.5616C19.204 20.1326 18.861 20.2758 18.6081 20.5307C18.3553 20.7855 18.2132 21.1312 18.2132 21.4917C18.2132 21.8521 18.3553 22.1978 18.6081 22.4527C18.861 22.7076 19.204 22.8508 19.5616 22.8508H32.1473L17.53 37.6013H1.34846C0.992273 37.606 0.651987 37.7507 0.400104 38.0045C0.148222 38.2584 0.00465661 38.6014 0 38.9603V55.7223C0.00465661 56.0813 0.148222 56.4243 0.400104 56.6781C0.651987 56.932 0.992273 57.0767 1.34846 57.0814H18.0693C18.4255 57.0767 18.7658 56.932 19.0177 56.6781C19.2696 56.4243 19.4131 56.0813 19.4178 55.7223V39.4134L33.9632 24.7716ZM16.7209 54.3632H2.69692V40.2288H16.7209V54.3632Z" fill="#00ADB5"/>
<path d="M54.6667 0H1.33333C0.981143 0.00464064 0.644674 0.147713 0.395616 0.398731C0.146559 0.64975 0.00460438 0.988869 0 1.34383V30.9081C0 31.2645 0.140475 31.6064 0.390523 31.8584C0.640572 32.1104 0.979711 32.252 1.33333 32.252C1.68696 32.252 2.02609 32.1104 2.27614 31.8584C2.52619 31.6064 2.66667 31.2645 2.66667 30.9081V2.68766H53.3333V53.7533H25.3333C24.9797 53.7533 24.6406 53.8949 24.3905 54.1469C24.1405 54.3989 24 54.7407 24 55.0971C24 55.4535 24.1405 55.7953 24.3905 56.0473C24.6406 56.2994 24.9797 56.4409 25.3333 56.4409H54.6667C55.0189 56.4363 55.3553 56.2932 55.6044 56.0422C55.8534 55.7912 55.9954 55.4521 56 55.0971V1.34383C55.9954 0.988869 55.8534 0.64975 55.6044 0.398731C55.3553 0.147713 55.0189 0.00464064 54.6667 0Z" fill="#00ADB5"/>
</svg>
