<svg width="56" height="56" viewBox="0 0 56 56" fill="none" xmlns="http://www.w3.org/2000/svg">
<path d="M23.3945 43.2938C26.021 40.0633 27.7672 36.2083 28.4634 32.1034C28.4634 30.8386 29.6897 27.3434 27.8359 27.1117C26.1752 27.1986 27.0924 30.5779 26.5614 31.7848C26.0136 35.0231 24.7544 38.0996 22.8745 40.7927C20.9946 43.4857 18.5407 45.7282 15.6897 47.3586C15.4688 47.486 15.3073 47.6955 15.2404 47.9415C15.1735 48.1875 15.2065 48.45 15.3324 48.6717C16.6552 50.6607 22.3614 44.549 23.3945 43.2938Z" fill="#00ADB5"/>
<path d="M27.6524 44.0952C31.0124 39.5862 37.3655 23.4234 27.44 23.2593C26.2243 23.352 25.0886 23.9012 24.2612 24.7967C23.4337 25.6922 22.9758 26.8676 22.9793 28.0869C22.9852 31.3115 22.1356 34.4799 20.5172 37.269C18.6005 40.5845 15.6981 43.2203 12.2138 44.8097C12.0984 44.8623 11.9945 44.9371 11.9081 45.0299C11.8216 45.1226 11.7543 45.2315 11.7099 45.3503C11.6202 45.5902 11.6296 45.8559 11.7359 46.089C11.8421 46.322 12.0366 46.5033 12.2765 46.5929C12.5165 46.6825 12.7821 46.6732 13.0152 46.5669C15.5652 45.4014 17.8471 43.7218 19.7179 41.6334C21.5886 39.545 23.0079 37.0928 23.8869 34.4303C24.5705 32.3822 24.9161 30.2364 24.9103 28.0772C24.9097 27.3287 25.199 26.609 25.7174 26.069C26.2358 25.529 26.9431 25.2106 27.691 25.1807C34.4497 25.3738 28.4828 40.1172 26.069 42.9848C24.3642 45.4378 22.2513 47.5801 19.8221 49.3186C19.7184 49.3925 19.6304 49.4862 19.563 49.5943C19.4957 49.7023 19.4504 49.8226 19.4298 49.9483C19.4092 50.0739 19.4136 50.2024 19.4428 50.3263C19.472 50.4502 19.5254 50.5672 19.6 50.6703C21.1448 52.5145 26.6966 45.4276 27.6524 44.0952Z" fill="#00ADB5"/>
<path d="M34.9228 38.2441C36.0718 34.8233 36.6302 31.2317 36.5738 27.6234C36.429 20.749 27.6331 16.8 22.371 21.2414C16.1724 26.4165 22.1876 33.5421 12.7159 40.0593C11.6823 40.7683 10.5588 41.3366 9.37517 41.749C9.25515 41.7912 9.14465 41.8567 9.05003 41.9417C8.9554 42.0267 8.87851 42.1296 8.82378 42.2445C8.76905 42.3593 8.73756 42.4838 8.73111 42.6109C8.72466 42.738 8.74339 42.865 8.78621 42.9848C9.90621 45.2055 15.9117 40.2041 16.8966 38.9297C19.568 35.9358 21.0396 32.0607 21.029 28.0483C21.0296 27.0306 21.26 26.0262 21.703 25.1101C22.1461 24.1939 22.7903 23.3896 23.5876 22.7572C27.6814 19.2717 34.5462 22.3421 34.6524 27.7103C34.7029 32 33.8307 36.2504 32.0949 40.1734C30.3591 44.0965 27.8002 47.6006 24.5917 50.4483C24.3999 50.6174 24.283 50.8558 24.2667 51.111C24.2504 51.3662 24.3361 51.6175 24.5048 51.8097C25.8855 53.2 28.531 48.9614 29.5545 48.0345C31.9047 45.1114 33.7219 41.7974 34.9228 38.2441Z" fill="#00ADB5"/>
<path d="M40.4745 28.0772C40.629 16.0952 24.6497 10.891 17.669 20.6234C16.0613 22.7751 15.1971 25.3913 15.2069 28.0772C15.1916 30.4422 14.3959 32.7359 12.9434 34.6023C11.4908 36.4686 9.46261 37.8032 7.17379 38.3986C7.04965 38.4301 6.93299 38.4859 6.83062 38.5628C6.72826 38.6398 6.64222 38.7363 6.57752 38.8468C6.51283 38.9574 6.47077 39.0797 6.45379 39.2066C6.43681 39.3335 6.44525 39.4626 6.47862 39.5862C7.18345 41.411 10.4276 39.1228 11.5186 38.5531C20.3434 32.8469 13.8938 24.5628 21.8979 19.2428C28.6566 14.4152 38.8234 19.8414 38.5434 28.1062C38.5368 36.3579 35.5112 44.3219 30.0372 50.4965C29.9019 50.6344 29.811 50.8097 29.7763 50.9998C29.7416 51.1899 29.7648 51.386 29.8428 51.5628C29.9207 51.7396 30.05 51.8889 30.2138 51.9914C30.3775 52.0939 30.5683 52.145 30.7614 52.1379C37.3559 46.3931 40.3297 36.6897 40.4745 28.0772Z" fill="#00ADB5"/>
<path d="M37.829 14.9752C29.989 8.69931 17.2828 11.6731 13.0345 20.7683C10.0897 25.8276 13.2952 33.2331 5.63862 34.7683C5.51183 34.7892 5.3904 34.8349 5.28126 34.9027C5.17212 34.9706 5.07742 35.0593 5.00256 35.1637C4.92769 35.2682 4.87414 35.3863 4.84494 35.5115C4.81575 35.6366 4.81149 35.7663 4.83241 35.8931C4.85333 36.0199 4.89902 36.1413 4.96687 36.2505C5.03472 36.3596 5.12341 36.4543 5.22786 36.5292C5.33231 36.604 5.45048 36.6576 5.57563 36.6868C5.70077 36.716 5.83045 36.7202 5.95724 36.6993C7.98847 36.3521 9.83247 35.3005 11.1655 33.7291C12.4986 32.1576 13.2355 30.1669 13.2469 28.1062C13.2546 25.0946 14.1929 22.159 15.9334 19.7012C17.6739 17.2435 20.1315 15.3837 22.9697 14.3766C32.0166 10.8814 42.7338 18.3448 42.4248 28.0772C42.4298 35.5066 40.2324 42.7708 36.1103 48.9517C36.0396 49.0575 35.9905 49.1762 35.9659 49.301C35.9412 49.4258 35.9414 49.5542 35.9665 49.679C35.9917 49.8037 36.0412 49.9222 36.1123 50.0277C36.1833 50.1332 36.2746 50.2236 36.3807 50.2938C38.1186 51.5103 40.6483 44.4428 41.3917 43.1103C45.0124 34.0828 46.8083 21.4924 37.829 14.9752Z" fill="#00ADB5"/>
<path d="M6.57517 16.3462C5.84138 17.7655 2.44276 24.6593 4.64414 25.171C4.77252 25.1974 4.90492 25.1974 5.03329 25.1709C5.16166 25.1445 5.28329 25.0922 5.39079 25.0172C5.49829 24.9422 5.58939 24.8461 5.65856 24.7348C5.72773 24.6235 5.7735 24.4992 5.7931 24.3697C6.42621 20.5935 8.0299 17.0468 10.4469 14.0772C23.5586 -2.12414 50.2069 7.1738 50.2069 28.0772C50.2073 30.3434 49.8622 32.5965 49.1834 34.7586C49.1444 34.8797 49.1297 35.0073 49.1402 35.1341C49.1507 35.2608 49.1861 35.3843 49.2444 35.4973C49.3027 35.6104 49.3828 35.7108 49.48 35.7928C49.5773 35.8748 49.6898 35.9368 49.811 35.9752C51.9448 36.5545 52.0317 29.5352 52.1379 28.0772C51.9545 3.1669 18.76 -5.29103 6.57517 16.3462Z" fill="#00ADB5"/>
<path d="M41.189 12.7062C30.8097 3.18621 12.4648 8.22621 8.44828 21.7241C7.76933 23.7734 7.42378 25.9184 7.42483 28.0772C7.42698 28.8085 7.15248 29.5135 6.65641 30.0507C6.16035 30.588 5.47944 30.9177 4.75034 30.9738C4.49427 30.9943 4.25683 31.1156 4.09024 31.3112C3.92366 31.5068 3.84158 31.7605 3.86207 32.0166C3.88255 32.2726 4.00393 32.5101 4.19948 32.6767C4.39504 32.8432 4.64876 32.9253 4.90483 32.9048C10.6979 32.2579 8.7669 26.2041 10.2828 22.3324C19.6772 -1.80552 58.1048 10.0607 42.8593 44.6938C42.7723 44.9253 42.7775 45.1813 42.8737 45.4091C42.9699 45.6368 43.1498 45.819 43.3764 45.9181C43.603 46.0171 43.8589 46.0255 44.0914 45.9414C44.3239 45.8573 44.5154 45.6872 44.6262 45.4662C47.0271 39.9875 48.2602 34.0686 48.2469 28.0869C48.2515 25.1655 47.623 22.2778 46.4046 19.6226C45.1862 16.9674 43.4068 14.6078 41.189 12.7062Z" fill="#00ADB5"/>
<path d="M0.965517 9.65517C1.22159 9.65517 1.46717 9.55345 1.64824 9.37238C1.82931 9.19131 1.93103 8.94573 1.93103 8.68965V1.93103H8.68965C8.94573 1.93103 9.19131 1.82931 9.37238 1.64824C9.55345 1.46717 9.65517 1.22159 9.65517 0.965517C9.65517 0.709446 9.55345 0.463863 9.37238 0.282793C9.19131 0.101724 8.94573 0 8.68965 0H0.965517C0.709446 0 0.463863 0.101724 0.282793 0.282793C0.101724 0.463863 0 0.709446 0 0.965517V8.68965C0 8.94573 0.101724 9.19131 0.282793 9.37238C0.463863 9.55345 0.709446 9.65517 0.965517 9.65517Z" fill="#00ADB5"/>
<path d="M55.0345 0H47.3103C47.0543 0 46.8087 0.101724 46.6276 0.282793C46.4465 0.463863 46.3448 0.709446 46.3448 0.965517C46.3448 1.22159 46.4465 1.46717 46.6276 1.64824C46.8087 1.82931 47.0543 1.93103 47.3103 1.93103H54.069V8.68965C54.069 8.94573 54.1707 9.19131 54.3518 9.37238C54.5328 9.55345 54.7784 9.65517 55.0345 9.65517C55.2906 9.65517 55.5361 9.55345 55.7172 9.37238C55.8983 9.19131 56 8.94573 56 8.68965V0.965517C56 0.709446 55.8983 0.463863 55.7172 0.282793C55.5361 0.101724 55.2906 0 55.0345 0Z" fill="#00ADB5"/>
<path d="M55.0345 46.3448C54.7784 46.3448 54.5328 46.4465 54.3518 46.6276C54.1707 46.8087 54.069 47.0543 54.069 47.3103V54.069H47.3103C47.0543 54.069 46.8087 54.1707 46.6276 54.3518C46.4465 54.5328 46.3448 54.7784 46.3448 55.0345C46.3448 55.2906 46.4465 55.5361 46.6276 55.7172C46.8087 55.8983 47.0543 56 47.3103 56H55.0345C55.2906 56 55.5361 55.8983 55.7172 55.7172C55.8983 55.5361 56 55.2906 56 55.0345V47.3103C56 47.0543 55.8983 46.8087 55.7172 46.6276C55.5361 46.4465 55.2906 46.3448 55.0345 46.3448Z" fill="#00ADB5"/>
<path d="M8.68965 54.069H1.93103V47.3103C1.93103 47.0543 1.82931 46.8087 1.64824 46.6276C1.46717 46.4465 1.22159 46.3448 0.965517 46.3448C0.709446 46.3448 0.463863 46.4465 0.282793 46.6276C0.101724 46.8087 0 47.0543 0 47.3103V55.0345C0 55.2906 0.101724 55.5361 0.282793 55.7172C0.463863 55.8983 0.709446 56 0.965517 56H8.68965C8.94573 56 9.19131 55.8983 9.37238 55.7172C9.55345 55.5361 9.65517 55.2906 9.65517 55.0345C9.65517 54.7784 9.55345 54.5328 9.37238 54.3518C9.19131 54.1707 8.94573 54.069 8.68965 54.069Z" fill="#00ADB5"/>
</svg>
